<?xml version="1.0" encoding="UTF-8" standalone="no"?><svg xmlns="http://www.w3.org/2000/svg" xmlns:xlink="http://www.w3.org/1999/xlink" contentStyleType="text/css" height="77px" preserveAspectRatio="none" style="width:573px;height:77px;background:#FFFFFF;" version="1.1" viewBox="0 0 573 77" width="573px" zoomAndPan="magnify"><defs/><g><!--MD5=[28a33587cab88bd185cb6d3cb19015ac]
class dummy--><g id="elem_dummy"><rect codeLine="2" fill="#F1F1F1" height="64.2969" id="dummy" rx="2.5" ry="2.5" style="stroke:#181818;stroke-width:0.5;" width="559" x="7" y="6.2969"/><ellipse cx="256.75" cy="22.2969" fill="#ADD1B2" rx="11" ry="11" style="stroke:#181818;stroke-width:1.0;"/><path d="M259.7188,27.9375 Q259.1406,28.2344 258.5,28.375 Q257.8594,28.5313 257.1563,28.5313 Q254.6563,28.5313 253.3281,26.8906 Q252.0156,25.2344 252.0156,22.1094 Q252.0156,18.9844 253.3281,17.3281 Q254.6563,15.6719 257.1563,15.6719 Q257.8594,15.6719 258.5,15.8281 Q259.1563,15.9844 259.7188,16.2813 L259.7188,19 Q259.0938,18.4219 258.5,18.1563 Q257.9063,17.875 257.2813,17.875 Q255.9375,17.875 255.25,18.9531 Q254.5625,20.0156 254.5625,22.1094 Q254.5625,24.2031 255.25,25.2813 Q255.9375,26.3438 257.2813,26.3438 Q257.9063,26.3438 258.5,26.0781 Q259.0938,25.7969 259.7188,25.2188 L259.7188,27.9375 Z " fill="#000000"/><text fill="#000000" font-family="sans-serif" font-size="14" lengthAdjust="spacing" textLength="51" x="277.25" y="27.1436">dummy</text><line style="stroke:#181818;stroke-width:0.5;" x1="8" x2="565" y1="38.2969" y2="38.2969"/><line style="stroke:#181818;stroke-width:0.5;" x1="8" x2="565" y1="46.2969" y2="46.2969"/><a href="./../../.././qc/crypto/camellia/cmll_ecb.c.html#144" target="_top" title="./../../.././qc/crypto/camellia/cmll_ecb.c.html#144" xlink:actuate="onRequest" xlink:href="./../../.././qc/crypto/camellia/cmll_ecb.c.html#144" xlink:show="new" xlink:title="./../../.././qc/crypto/camellia/cmll_ecb.c.html#144" xlink:type="simple"><text fill="#000000" font-family="sans-serif" font-size="14" lengthAdjust="spacing" textLength="547" x="13" y="63.292">Camellia_ecb_encrypt(unsignedchar*;unsignedchar*;CAMELLIA_KEY*;int) :  void</text></a></g><!--MD5=[4acf4a40d422c34951731ee1308d1f2a]
@startuml
!pragma layout smetana
class dummy {
Camellia_ecb_encrypt(unsignedchar*;unsignedchar*;CAMELLIA_KEY*;int) :  void  [[[./../../.././qc/crypto/camellia/cmll_ecb.c.html#144]]]
} 
@enduml

PlantUML version 1.2022.7(Mon Aug 22 17:01:30 UTC 2022)
(GPL source distribution)
Java Runtime: OpenJDK Runtime Environment
JVM: OpenJDK 64-Bit Server VM
Default Encoding: UTF-8
Language: en
Country: null
--></g></svg>