<svg xmlns="http://www.w3.org/2000/svg" xmlns:xlink="http://www.w3.org/1999/xlink" contentStyleType="text/css" data-diagram-type="CLASS" height="77px" preserveAspectRatio="none" style="width:593px;height:77px;background:#FFFFFF;" version="1.1" viewBox="0 0 593 77" width="593px" zoomAndPan="magnify"><?plantuml 1.2026.6?><defs/><g><!--class dummy--><g class="entity" data-qualified-name="dummy" data-source-line="2" id="ent0001"><rect fill="#F1F1F1" height="64.2969" rx="2.5" ry="2.5" style="stroke:#181818;stroke-width:0.5;" width="571.0225" x="6" y="12"/><ellipse cx="260.6011" cy="28" fill="#ADD1B2" rx="11" ry="11" style="stroke:#181818;stroke-width:1;"/><path d="M263.5698,33.6406 Q262.9917,33.9375 262.3511,34.0781 Q261.7104,34.2344 261.0073,34.2344 Q258.5073,34.2344 257.1792,32.5938 Q255.8667,30.9375 255.8667,27.8125 Q255.8667,24.6875 257.1792,23.0313 Q258.5073,21.375 261.0073,21.375 Q261.7104,21.375 262.3511,21.5313 Q263.0073,21.6875 263.5698,21.9844 L263.5698,24.7031 Q262.9448,24.125 262.3511,23.8594 Q261.7573,23.5781 261.1323,23.5781 Q259.7886,23.5781 259.1011,24.6563 Q258.4136,25.7188 258.4136,27.8125 Q258.4136,29.9063 259.1011,30.9844 Q259.7886,32.0469 261.1323,32.0469 Q261.7573,32.0469 262.3511,31.7813 Q262.9448,31.5 263.5698,30.9219 L263.5698,33.6406 Z " fill="#000000"/><text fill="#000000" font-family="sans-serif" font-size="14" lengthAdjust="spacing" textLength="53.3203" x="281.1011" y="32.8467">dummy</text><line style="stroke:#181818;stroke-width:0.5;" x1="7" x2="576.0225" y1="44" y2="44"/><line style="stroke:#181818;stroke-width:0.5;" x1="7" x2="576.0225" y1="52" y2="52"/><a href="./../../.././qc/crypto/camellia/cmll_ecb.c.html#144" target="_top" title="./../../.././qc/crypto/camellia/cmll_ecb.c.html#144" xlink:actuate="onRequest" xlink:href="./../../.././qc/crypto/camellia/cmll_ecb.c.html#144" xlink:show="new" xlink:title="./../../.././qc/crypto/camellia/cmll_ecb.c.html#144" xlink:type="simple"><text fill="#000000" font-family="sans-serif" font-size="14" lengthAdjust="spacing" textLength="559.0225" x="12" y="68.9951">Camellia_ecb_encrypt(unsignedchar*;unsignedchar*;CAMELLIA_KEY*;int) :  void</text></a></g><?plantuml-src LOt12e90443lViL4b_AmI-0fJo8U9Fk0495fN7HXPZLt3IJwzoWY2DxbNTxRJ3FsWi2uZai0BoQWmuWOlOTk4LdX4UKeXjbYQ-ZQ6aVpEeNTuhpjdUbem3bE_otFpaLLbLbxAYvnQbtOmn7WFjeEeAvhfTKFVIFz2OwQlXjDmln-AL934DuUagHfckW9Bm00?></g></svg>