<?xml version="1.0" encoding="UTF-8" standalone="no"?><svg xmlns="http://www.w3.org/2000/svg" xmlns:xlink="http://www.w3.org/1999/xlink" contentStyleType="text/css" height="109px" preserveAspectRatio="none" style="width:388px;height:109px;background:#FFFFFF;" version="1.1" viewBox="0 0 388 109" width="388px" zoomAndPan="magnify"><defs/><g><!--MD5=[28a33587cab88bd185cb6d3cb19015ac]
class dummy--><g id="elem_dummy"><rect codeLine="2" fill="#F1F1F1" height="96.8906" id="dummy" rx="2.5" ry="2.5" style="stroke:#181818;stroke-width:0.5;" width="374" x="7" y="5.8906"/><ellipse cx="164.25" cy="21.8906" fill="#ADD1B2" rx="11" ry="11" style="stroke:#181818;stroke-width:1.0;"/><path d="M167.2188,27.5313 Q166.6406,27.8281 166,27.9688 Q165.3594,28.125 164.6563,28.125 Q162.1563,28.125 160.8281,26.4844 Q159.5156,24.8281 159.5156,21.7031 Q159.5156,18.5781 160.8281,16.9219 Q162.1563,15.2656 164.6563,15.2656 Q165.3594,15.2656 166,15.4219 Q166.6563,15.5781 167.2188,15.875 L167.2188,18.5938 Q166.5938,18.0156 166,17.75 Q165.4063,17.4688 164.7813,17.4688 Q163.4375,17.4688 162.75,18.5469 Q162.0625,19.6094 162.0625,21.7031 Q162.0625,23.7969 162.75,24.875 Q163.4375,25.9375 164.7813,25.9375 Q165.4063,25.9375 166,25.6719 Q166.5938,25.3906 167.2188,24.8125 L167.2188,27.5313 Z " fill="#000000"/><text fill="#000000" font-family="sans-serif" font-size="14" lengthAdjust="spacing" textLength="51" x="184.75" y="26.7373">dummy</text><line style="stroke:#181818;stroke-width:0.5;" x1="8" x2="380" y1="37.8906" y2="37.8906"/><line style="stroke:#181818;stroke-width:0.5;" x1="8" x2="380" y1="45.8906" y2="45.8906"/><a href="./../../.././qc/crypto/camellia/cmll_misc.c.html#145" target="_top" title="./../../.././qc/crypto/camellia/cmll_misc.c.html#145" xlink:actuate="onRequest" xlink:href="./../../.././qc/crypto/camellia/cmll_misc.c.html#145" xlink:show="new" xlink:title="./../../.././qc/crypto/camellia/cmll_misc.c.html#145" xlink:type="simple"><text fill="#000000" font-family="sans-serif" font-size="14" lengthAdjust="spacing" textLength="332" x="13" y="62.8857">Camellia_set_key(char*;int;CAMELLIA_KEY*) :  int</text></a><a href="./../../.././qc/crypto/camellia/cmll_misc.c.html#156" target="_top" title="./../../.././qc/crypto/camellia/cmll_misc.c.html#156" xlink:actuate="onRequest" xlink:href="./../../.././qc/crypto/camellia/cmll_misc.c.html#156" xlink:show="new" xlink:title="./../../.././qc/crypto/camellia/cmll_misc.c.html#156" xlink:type="simple"><text fill="#000000" font-family="sans-serif" font-size="14" lengthAdjust="spacing" textLength="362" x="13" y="79.1826">Camellia_encrypt(char*;char*;CAMELLIA_KEY*) :  void</text></a><a href="./../../.././qc/crypto/camellia/cmll_misc.c.html#162" target="_top" title="./../../.././qc/crypto/camellia/cmll_misc.c.html#162" xlink:actuate="onRequest" xlink:href="./../../.././qc/crypto/camellia/cmll_misc.c.html#162" xlink:show="new" xlink:title="./../../.././qc/crypto/camellia/cmll_misc.c.html#162" xlink:type="simple"><text fill="#000000" font-family="sans-serif" font-size="14" lengthAdjust="spacing" textLength="362" x="13" y="95.4795">Camellia_decrypt(char*;char*;CAMELLIA_KEY*) :  void</text></a></g><!--MD5=[730e6b89207df07876cb26c1a48e6244]
@startuml
!pragma layout smetana
class dummy {
Camellia_set_key(char*;int;CAMELLIA_KEY*) :  int  [[[./../../.././qc/crypto/camellia/cmll_misc.c.html#145]]]
Camellia_encrypt(char*;char*;CAMELLIA_KEY*) :  void  [[[./../../.././qc/crypto/camellia/cmll_misc.c.html#156]]]
Camellia_decrypt(char*;char*;CAMELLIA_KEY*) :  void  [[[./../../.././qc/crypto/camellia/cmll_misc.c.html#162]]]
} 
@enduml

PlantUML version 1.2022.7(Mon Aug 22 17:01:30 UTC 2022)
(GPL source distribution)
Java Runtime: OpenJDK Runtime Environment
JVM: OpenJDK 64-Bit Server VM
Default Encoding: UTF-8
Language: en
Country: null
--></g></svg>