<?xml version="1.0" encoding="UTF-8" standalone="no"?><svg xmlns="http://www.w3.org/2000/svg" xmlns:xlink="http://www.w3.org/1999/xlink" contentStyleType="text/css" height="109px" preserveAspectRatio="none" style="width:649px;height:109px;background:#FFFFFF;" version="1.1" viewBox="0 0 649 109" width="649px" zoomAndPan="magnify"><defs/><g><!--MD5=[28a33587cab88bd185cb6d3cb19015ac]
class dummy--><g id="elem_dummy"><rect codeLine="2" fill="#F1F1F1" height="96.8906" id="dummy" rx="2.5" ry="2.5" style="stroke:#181818;stroke-width:0.5;" width="635" x="7" y="5.8906"/><ellipse cx="294.75" cy="21.8906" fill="#ADD1B2" rx="11" ry="11" style="stroke:#181818;stroke-width:1.0;"/><path d="M297.7188,27.5313 Q297.1406,27.8281 296.5,27.9688 Q295.8594,28.125 295.1563,28.125 Q292.6563,28.125 291.3281,26.4844 Q290.0156,24.8281 290.0156,21.7031 Q290.0156,18.5781 291.3281,16.9219 Q292.6563,15.2656 295.1563,15.2656 Q295.8594,15.2656 296.5,15.4219 Q297.1563,15.5781 297.7188,15.875 L297.7188,18.5938 Q297.0938,18.0156 296.5,17.75 Q295.9063,17.4688 295.2813,17.4688 Q293.9375,17.4688 293.25,18.5469 Q292.5625,19.6094 292.5625,21.7031 Q292.5625,23.7969 293.25,24.875 Q293.9375,25.9375 295.2813,25.9375 Q295.9063,25.9375 296.5,25.6719 Q297.0938,25.3906 297.7188,24.8125 L297.7188,27.5313 Z " fill="#000000"/><text fill="#000000" font-family="sans-serif" font-size="14" lengthAdjust="spacing" textLength="51" x="315.25" y="26.7373">dummy</text><line style="stroke:#181818;stroke-width:0.5;" x1="8" x2="641" y1="37.8906" y2="37.8906"/><line style="stroke:#181818;stroke-width:0.5;" x1="8" x2="641" y1="45.8906" y2="45.8906"/><a href="./../../.././qc/crypto/rc2/rc2_cbc.c.html#74" target="_top" title="./../../.././qc/crypto/rc2/rc2_cbc.c.html#74" xlink:actuate="onRequest" xlink:href="./../../.././qc/crypto/rc2/rc2_cbc.c.html#74" xlink:show="new" xlink:title="./../../.././qc/crypto/rc2/rc2_cbc.c.html#74" xlink:type="simple"><text fill="#000000" font-family="sans-serif" font-size="14" lengthAdjust="spacing" textLength="623" x="13" y="62.8857">RC2_cbc_encrypt(unsignedchar*;unsignedchar*;long;RC2_KEY*;unsignedchar*;int) :  void</text></a><a href="./../../.././qc/crypto/rc2/rc2_cbc.c.html#149" target="_top" title="./../../.././qc/crypto/rc2/rc2_cbc.c.html#149" xlink:actuate="onRequest" xlink:href="./../../.././qc/crypto/rc2/rc2_cbc.c.html#149" xlink:show="new" xlink:title="./../../.././qc/crypto/rc2/rc2_cbc.c.html#149" xlink:type="simple"><text fill="#000000" font-family="sans-serif" font-size="14" lengthAdjust="spacing" textLength="320" x="13" y="79.1826">RC2_encrypt(unsignedlong*;RC2_KEY*) :  void</text></a><a href="./../../.././qc/crypto/rc2/rc2_cbc.c.html#195" target="_top" title="./../../.././qc/crypto/rc2/rc2_cbc.c.html#195" xlink:actuate="onRequest" xlink:href="./../../.././qc/crypto/rc2/rc2_cbc.c.html#195" xlink:show="new" xlink:title="./../../.././qc/crypto/rc2/rc2_cbc.c.html#195" xlink:type="simple"><text fill="#000000" font-family="sans-serif" font-size="14" lengthAdjust="spacing" textLength="320" x="13" y="95.4795">RC2_decrypt(unsignedlong*;RC2_KEY*) :  void</text></a></g><!--MD5=[c2e10faeecce37c9540099889bb42055]
@startuml
!pragma layout smetana
class dummy {
RC2_cbc_encrypt(unsignedchar*;unsignedchar*;long;RC2_KEY*;unsignedchar*;int) :  void  [[[./../../.././qc/crypto/rc2/rc2_cbc.c.html#74]]]
RC2_encrypt(unsignedlong*;RC2_KEY*) :  void  [[[./../../.././qc/crypto/rc2/rc2_cbc.c.html#149]]]
RC2_decrypt(unsignedlong*;RC2_KEY*) :  void  [[[./../../.././qc/crypto/rc2/rc2_cbc.c.html#195]]]
} 
@enduml

PlantUML version 1.2022.7(Mon Aug 22 17:01:30 UTC 2022)
(GPL source distribution)
Java Runtime: OpenJDK Runtime Environment
JVM: OpenJDK 64-Bit Server VM
Default Encoding: UTF-8
Language: en
Country: null
--></g></svg>