<?xml version="1.0" encoding="UTF-8" standalone="no"?><svg xmlns="http://www.w3.org/2000/svg" xmlns:xlink="http://www.w3.org/1999/xlink" contentStyleType="text/css" height="77px" preserveAspectRatio="none" style="width:326px;height:77px;background:#FFFFFF;" version="1.1" viewBox="0 0 326 77" width="326px" zoomAndPan="magnify"><defs/><g><!--MD5=[28a33587cab88bd185cb6d3cb19015ac]
class dummy--><g id="elem_dummy"><rect codeLine="2" fill="#F1F1F1" height="64.2969" id="dummy" rx="2.5" ry="2.5" style="stroke:#181818;stroke-width:0.5;" width="312" x="7" y="6.2969"/><ellipse cx="133.25" cy="22.2969" fill="#ADD1B2" rx="11" ry="11" style="stroke:#181818;stroke-width:1.0;"/><path d="M136.2188,27.9375 Q135.6406,28.2344 135,28.375 Q134.3594,28.5313 133.6563,28.5313 Q131.1563,28.5313 129.8281,26.8906 Q128.5156,25.2344 128.5156,22.1094 Q128.5156,18.9844 129.8281,17.3281 Q131.1563,15.6719 133.6563,15.6719 Q134.3594,15.6719 135,15.8281 Q135.6563,15.9844 136.2188,16.2813 L136.2188,19 Q135.5938,18.4219 135,18.1563 Q134.4063,17.875 133.7813,17.875 Q132.4375,17.875 131.75,18.9531 Q131.0625,20.0156 131.0625,22.1094 Q131.0625,24.2031 131.75,25.2813 Q132.4375,26.3438 133.7813,26.3438 Q134.4063,26.3438 135,26.0781 Q135.5938,25.7969 136.2188,25.2188 L136.2188,27.9375 Z " fill="#000000"/><text fill="#000000" font-family="sans-serif" font-size="14" lengthAdjust="spacing" textLength="51" x="153.75" y="27.1436">dummy</text><line style="stroke:#181818;stroke-width:0.5;" x1="8" x2="318" y1="38.2969" y2="38.2969"/><line style="stroke:#181818;stroke-width:0.5;" x1="8" x2="318" y1="46.2969" y2="46.2969"/><a href="./../../.././qc/crypto/rc2/rc2_skey.c.html#99" target="_top" title="./../../.././qc/crypto/rc2/rc2_skey.c.html#99" xlink:actuate="onRequest" xlink:href="./../../.././qc/crypto/rc2/rc2_skey.c.html#99" xlink:show="new" xlink:title="./../../.././qc/crypto/rc2/rc2_skey.c.html#99" xlink:type="simple"><text fill="#000000" font-family="sans-serif" font-size="14" lengthAdjust="spacing" textLength="300" x="13" y="63.292">RC2_set_key(RC2_KEY*;int;char*;int) :  void</text></a></g><!--MD5=[744e688c058c06e8942e5cabf2d46b98]
@startuml
!pragma layout smetana
class dummy {
RC2_set_key(RC2_KEY*;int;char*;int) :  void  [[[./../../.././qc/crypto/rc2/rc2_skey.c.html#99]]]
} 
@enduml

PlantUML version 1.2022.7(Mon Aug 22 17:01:30 UTC 2022)
(GPL source distribution)
Java Runtime: OpenJDK Runtime Environment
JVM: OpenJDK 64-Bit Server VM
Default Encoding: UTF-8
Language: en
Country: null
--></g></svg>