<?xml version="1.0" encoding="UTF-8" standalone="no"?><svg xmlns="http://www.w3.org/2000/svg" xmlns:xlink="http://www.w3.org/1999/xlink" contentStyleType="text/css" height="77px" preserveAspectRatio="none" style="width:378px;height:77px;background:#FFFFFF;" version="1.1" viewBox="0 0 378 77" width="378px" zoomAndPan="magnify"><defs/><g><!--MD5=[28a33587cab88bd185cb6d3cb19015ac]
class dummy--><g id="elem_dummy"><rect codeLine="2" fill="#F1F1F1" height="64.2969" id="dummy" rx="2.5" ry="2.5" style="stroke:#181818;stroke-width:0.5;" width="364" x="7" y="6.2969"/><ellipse cx="159.25" cy="22.2969" fill="#ADD1B2" rx="11" ry="11" style="stroke:#181818;stroke-width:1.0;"/><path d="M162.2188,27.9375 Q161.6406,28.2344 161,28.375 Q160.3594,28.5313 159.6563,28.5313 Q157.1563,28.5313 155.8281,26.8906 Q154.5156,25.2344 154.5156,22.1094 Q154.5156,18.9844 155.8281,17.3281 Q157.1563,15.6719 159.6563,15.6719 Q160.3594,15.6719 161,15.8281 Q161.6563,15.9844 162.2188,16.2813 L162.2188,19 Q161.5938,18.4219 161,18.1563 Q160.4063,17.875 159.7813,17.875 Q158.4375,17.875 157.75,18.9531 Q157.0625,20.0156 157.0625,22.1094 Q157.0625,24.2031 157.75,25.2813 Q158.4375,26.3438 159.7813,26.3438 Q160.4063,26.3438 161,26.0781 Q161.5938,25.7969 162.2188,25.2188 L162.2188,27.9375 Z " fill="#000000"/><text fill="#000000" font-family="sans-serif" font-size="14" lengthAdjust="spacing" textLength="51" x="179.75" y="27.1436">dummy</text><line style="stroke:#181818;stroke-width:0.5;" x1="8" x2="370" y1="38.2969" y2="38.2969"/><line style="stroke:#181818;stroke-width:0.5;" x1="8" x2="370" y1="46.2969" y2="46.2969"/><a href="./../../.././qc/crypto/rc2/rc2_ecb.c.html#74" target="_top" title="./../../.././qc/crypto/rc2/rc2_ecb.c.html#74" xlink:actuate="onRequest" xlink:href="./../../.././qc/crypto/rc2/rc2_ecb.c.html#74" xlink:show="new" xlink:title="./../../.././qc/crypto/rc2/rc2_ecb.c.html#74" xlink:type="simple"><text fill="#000000" font-family="sans-serif" font-size="14" lengthAdjust="spacing" textLength="352" x="13" y="63.292">RC2_ecb_encrypt(char*;char*;RC2_KEY*;int) :  void</text></a></g><!--MD5=[1a9f9efdca1f4cb18c4421c9dc12e5eb]
@startuml
!pragma layout smetana
class dummy {
RC2_ecb_encrypt(char*;char*;RC2_KEY*;int) :  void  [[[./../../.././qc/crypto/rc2/rc2_ecb.c.html#74]]]
} 
@enduml

PlantUML version 1.2022.7(Mon Aug 22 17:01:30 UTC 2022)
(GPL source distribution)
Java Runtime: OpenJDK Runtime Environment
JVM: OpenJDK 64-Bit Server VM
Default Encoding: UTF-8
Language: en
Country: null
--></g></svg>