<svg xmlns="http://www.w3.org/2000/svg" xmlns:xlink="http://www.w3.org/1999/xlink" contentStyleType="text/css" data-diagram-type="CLASS" height="77px" preserveAspectRatio="none" style="width:519px;height:77px;background:#FFFFFF;" version="1.1" viewBox="0 0 519 77" width="519px" zoomAndPan="magnify"><?plantuml 1.2026.6?><defs/><g><!--class dummy--><g class="entity" data-qualified-name="dummy" data-source-line="2" id="ent0001"><rect fill="#F1F1F1" height="64.2969" rx="2.5" ry="2.5" style="stroke:#181818;stroke-width:0.5;" width="497.4063" x="6" y="12"/><ellipse cx="223.793" cy="28" fill="#ADD1B2" rx="11" ry="11" style="stroke:#181818;stroke-width:1;"/><path d="M226.7617,33.6406 Q226.1836,33.9375 225.543,34.0781 Q224.9023,34.2344 224.1992,34.2344 Q221.6992,34.2344 220.3711,32.5938 Q219.0586,30.9375 219.0586,27.8125 Q219.0586,24.6875 220.3711,23.0313 Q221.6992,21.375 224.1992,21.375 Q224.9023,21.375 225.543,21.5313 Q226.1992,21.6875 226.7617,21.9844 L226.7617,24.7031 Q226.1367,24.125 225.543,23.8594 Q224.9492,23.5781 224.3242,23.5781 Q222.9805,23.5781 222.293,24.6563 Q221.6055,25.7188 221.6055,27.8125 Q221.6055,29.9063 222.293,30.9844 Q222.9805,32.0469 224.3242,32.0469 Q224.9492,32.0469 225.543,31.7813 Q226.1367,31.5 226.7617,30.9219 L226.7617,33.6406 Z " fill="#000000"/><text fill="#000000" font-family="sans-serif" font-size="14" lengthAdjust="spacing" textLength="53.3203" x="244.293" y="32.8467">dummy</text><line style="stroke:#181818;stroke-width:0.5;" x1="7" x2="502.4063" y1="44" y2="44"/><line style="stroke:#181818;stroke-width:0.5;" x1="7" x2="502.4063" y1="52" y2="52"/><a href="./../../.././qc/crypto/rc2/rc2_ecb.c.html#74" target="_top" title="./../../.././qc/crypto/rc2/rc2_ecb.c.html#74" xlink:actuate="onRequest" xlink:href="./../../.././qc/crypto/rc2/rc2_ecb.c.html#74" xlink:show="new" xlink:title="./../../.././qc/crypto/rc2/rc2_ecb.c.html#74" xlink:type="simple"><text fill="#000000" font-family="sans-serif" font-size="14" lengthAdjust="spacing" textLength="485.4063" x="12" y="68.9951">RC2_ecb_encrypt(unsignedchar*;unsignedchar*;RC2_KEY*;int) :  void</text></a></g><?plantuml-src KomeIapFJLJ8IQpCBorHACvDBKdCI-HApaaiBbP8AStDhLIevWfoDefFJKwAJyrBBgeiAD4epIlEJCzBJKdEI2pIiaRbWTHwkqPgMMVcbMWgM2aebELdfYWeH4T7w-dhmP5-OR8-sAny_Q9a8n06MQ2Nh9THafkZR6uI6nlBLQi00000?></g></svg>