<?xml version="1.0" encoding="UTF-8" standalone="no"?><svg xmlns="http://www.w3.org/2000/svg" xmlns:xlink="http://www.w3.org/1999/xlink" contentStyleType="text/css" height="77px" preserveAspectRatio="none" style="width:391px;height:77px;background:#FFFFFF;" version="1.1" viewBox="0 0 391 77" width="391px" zoomAndPan="magnify"><defs/><g><!--MD5=[28a33587cab88bd185cb6d3cb19015ac]
class dummy--><g id="elem_dummy"><rect codeLine="2" fill="#F1F1F1" height="64.2969" id="dummy" rx="2.5" ry="2.5" style="stroke:#181818;stroke-width:0.5;" width="377" x="7" y="6.2969"/><ellipse cx="165.75" cy="22.2969" fill="#ADD1B2" rx="11" ry="11" style="stroke:#181818;stroke-width:1.0;"/><path d="M168.7188,27.9375 Q168.1406,28.2344 167.5,28.375 Q166.8594,28.5313 166.1563,28.5313 Q163.6563,28.5313 162.3281,26.8906 Q161.0156,25.2344 161.0156,22.1094 Q161.0156,18.9844 162.3281,17.3281 Q163.6563,15.6719 166.1563,15.6719 Q166.8594,15.6719 167.5,15.8281 Q168.1563,15.9844 168.7188,16.2813 L168.7188,19 Q168.0938,18.4219 167.5,18.1563 Q166.9063,17.875 166.2813,17.875 Q164.9375,17.875 164.25,18.9531 Q163.5625,20.0156 163.5625,22.1094 Q163.5625,24.2031 164.25,25.2813 Q164.9375,26.3438 166.2813,26.3438 Q166.9063,26.3438 167.5,26.0781 Q168.0938,25.7969 168.7188,25.2188 L168.7188,27.9375 Z " fill="#000000"/><text fill="#000000" font-family="sans-serif" font-size="14" lengthAdjust="spacing" textLength="51" x="186.25" y="27.1436">dummy</text><line style="stroke:#181818;stroke-width:0.5;" x1="8" x2="383" y1="38.2969" y2="38.2969"/><line style="stroke:#181818;stroke-width:0.5;" x1="8" x2="383" y1="46.2969" y2="46.2969"/><a href="./../../.././qc/crypto/rc2/rc2_skey.c.html#99" target="_top" title="./../../.././qc/crypto/rc2/rc2_skey.c.html#99" xlink:actuate="onRequest" xlink:href="./../../.././qc/crypto/rc2/rc2_skey.c.html#99" xlink:show="new" xlink:title="./../../.././qc/crypto/rc2/rc2_skey.c.html#99" xlink:type="simple"><text fill="#000000" font-family="sans-serif" font-size="14" lengthAdjust="spacing" textLength="365" x="13" y="63.292">RC2_set_key(RC2_KEY*;int;unsignedchar*;int) :  void</text></a></g><!--MD5=[4b9e1977fe6339d6c7392a9095a50048]
@startuml
!pragma layout smetana
class dummy {
RC2_set_key(RC2_KEY*;int;unsignedchar*;int) :  void  [[[./../../.././qc/crypto/rc2/rc2_skey.c.html#99]]]
} 
@enduml

PlantUML version 1.2022.7(Mon Aug 22 17:01:30 UTC 2022)
(GPL source distribution)
Java Runtime: OpenJDK Runtime Environment
JVM: OpenJDK 64-Bit Server VM
Default Encoding: UTF-8
Language: en
Country: null
--></g></svg>