<svg xmlns="http://www.w3.org/2000/svg" xmlns:xlink="http://www.w3.org/1999/xlink" contentStyleType="text/css" data-diagram-type="CLASS" height="77px" preserveAspectRatio="none" style="width:403px;height:77px;background:#FFFFFF;" version="1.1" viewBox="0 0 403 77" width="403px" zoomAndPan="magnify"><?plantuml 1.2026.6?><defs/><g><!--class dummy--><g class="entity" data-qualified-name="dummy" data-source-line="2" id="ent0001"><rect fill="#F1F1F1" height="64.2969" rx="2.5" ry="2.5" style="stroke:#181818;stroke-width:0.5;" width="381.168" x="6" y="12"/><ellipse cx="165.6738" cy="28" fill="#ADD1B2" rx="11" ry="11" style="stroke:#181818;stroke-width:1;"/><path d="M168.6426,33.6406 Q168.0645,33.9375 167.4238,34.0781 Q166.7832,34.2344 166.0801,34.2344 Q163.5801,34.2344 162.252,32.5938 Q160.9395,30.9375 160.9395,27.8125 Q160.9395,24.6875 162.252,23.0313 Q163.5801,21.375 166.0801,21.375 Q166.7832,21.375 167.4238,21.5313 Q168.0801,21.6875 168.6426,21.9844 L168.6426,24.7031 Q168.0176,24.125 167.4238,23.8594 Q166.8301,23.5781 166.2051,23.5781 Q164.8613,23.5781 164.1738,24.6563 Q163.4863,25.7188 163.4863,27.8125 Q163.4863,29.9063 164.1738,30.9844 Q164.8613,32.0469 166.2051,32.0469 Q166.8301,32.0469 167.4238,31.7813 Q168.0176,31.5 168.6426,30.9219 L168.6426,33.6406 Z " fill="#000000"/><text fill="#000000" font-family="sans-serif" font-size="14" lengthAdjust="spacing" textLength="53.3203" x="186.1738" y="32.8467">dummy</text><line style="stroke:#181818;stroke-width:0.5;" x1="7" x2="386.168" y1="44" y2="44"/><line style="stroke:#181818;stroke-width:0.5;" x1="7" x2="386.168" y1="52" y2="52"/><a href="./../../.././qc/crypto/rc2/rc2_skey.c.html#99" target="_top" title="./../../.././qc/crypto/rc2/rc2_skey.c.html#99" xlink:actuate="onRequest" xlink:href="./../../.././qc/crypto/rc2/rc2_skey.c.html#99" xlink:show="new" xlink:title="./../../.././qc/crypto/rc2/rc2_skey.c.html#99" xlink:type="simple"><text fill="#000000" font-family="sans-serif" font-size="14" lengthAdjust="spacing" textLength="369.168" x="12" y="68.9951">RC2_set_key(RC2_KEY*;int;unsignedchar*;int) :  void</text></a></g><?plantuml-src KomeIapFJLJ8IQpCBorHACvDBKdCI-HApaaiBbP8AStDhLIevWfoDeelJYs9pqwjr02nlLqZjQmpyqgiI_EACzFpKbEICnABm2AQ2bOA2cNvcIaA2j7HqNhwUd2aNvYidrnKML2Ihr-KR0J2ySL0y_IIzJ9ASdEKBIrZOsEvQXK0?></g></svg>