<?xml version="1.0" encoding="UTF-8" standalone="no"?><svg xmlns="http://www.w3.org/2000/svg" xmlns:xlink="http://www.w3.org/1999/xlink" contentStyleType="text/css" height="109px" preserveAspectRatio="none" style="width:454px;height:109px;background:#FFFFFF;" version="1.1" viewBox="0 0 454 109" width="454px" zoomAndPan="magnify"><defs/><g><!--MD5=[28a33587cab88bd185cb6d3cb19015ac]
class dummy--><g id="elem_dummy"><rect codeLine="2" fill="#F1F1F1" height="96.8906" id="dummy" rx="2.5" ry="2.5" style="stroke:#181818;stroke-width:0.5;" width="440" x="7" y="5.8906"/><ellipse cx="197.25" cy="21.8906" fill="#ADD1B2" rx="11" ry="11" style="stroke:#181818;stroke-width:1.0;"/><path d="M200.2188,27.5313 Q199.6406,27.8281 199,27.9688 Q198.3594,28.125 197.6563,28.125 Q195.1563,28.125 193.8281,26.4844 Q192.5156,24.8281 192.5156,21.7031 Q192.5156,18.5781 193.8281,16.9219 Q195.1563,15.2656 197.6563,15.2656 Q198.3594,15.2656 199,15.4219 Q199.6563,15.5781 200.2188,15.875 L200.2188,18.5938 Q199.5938,18.0156 199,17.75 Q198.4063,17.4688 197.7813,17.4688 Q196.4375,17.4688 195.75,18.5469 Q195.0625,19.6094 195.0625,21.7031 Q195.0625,23.7969 195.75,24.875 Q196.4375,25.9375 197.7813,25.9375 Q198.4063,25.9375 199,25.6719 Q199.5938,25.3906 200.2188,24.8125 L200.2188,27.5313 Z " fill="#000000"/><text fill="#000000" font-family="sans-serif" font-size="14" lengthAdjust="spacing" textLength="51" x="217.75" y="26.7373">dummy</text><line style="stroke:#181818;stroke-width:0.5;" x1="8" x2="446" y1="37.8906" y2="37.8906"/><line style="stroke:#181818;stroke-width:0.5;" x1="8" x2="446" y1="45.8906" y2="45.8906"/><a href="./../../.././qc/crypto/rc2/rc2_cbc.c.html#74" target="_top" title="./../../.././qc/crypto/rc2/rc2_cbc.c.html#74" xlink:actuate="onRequest" xlink:href="./../../.././qc/crypto/rc2/rc2_cbc.c.html#74" xlink:show="new" xlink:title="./../../.././qc/crypto/rc2/rc2_cbc.c.html#74" xlink:type="simple"><text fill="#000000" font-family="sans-serif" font-size="14" lengthAdjust="spacing" textLength="428" x="13" y="62.8857">RC2_cbc_encrypt(char*;char*;long;RC2_KEY*;char*;int) :  void</text></a><a href="./../../.././qc/crypto/rc2/rc2_cbc.c.html#149" target="_top" title="./../../.././qc/crypto/rc2/rc2_cbc.c.html#149" xlink:actuate="onRequest" xlink:href="./../../.././qc/crypto/rc2/rc2_cbc.c.html#149" xlink:show="new" xlink:title="./../../.././qc/crypto/rc2/rc2_cbc.c.html#149" xlink:type="simple"><text fill="#000000" font-family="sans-serif" font-size="14" lengthAdjust="spacing" textLength="255" x="13" y="79.1826">RC2_encrypt(long*;RC2_KEY*) :  void</text></a><a href="./../../.././qc/crypto/rc2/rc2_cbc.c.html#195" target="_top" title="./../../.././qc/crypto/rc2/rc2_cbc.c.html#195" xlink:actuate="onRequest" xlink:href="./../../.././qc/crypto/rc2/rc2_cbc.c.html#195" xlink:show="new" xlink:title="./../../.././qc/crypto/rc2/rc2_cbc.c.html#195" xlink:type="simple"><text fill="#000000" font-family="sans-serif" font-size="14" lengthAdjust="spacing" textLength="255" x="13" y="95.4795">RC2_decrypt(long*;RC2_KEY*) :  void</text></a></g><!--MD5=[d1cb2ee5164079b36c7ff7dbb2148f3b]
@startuml
!pragma layout smetana
class dummy {
RC2_cbc_encrypt(char*;char*;long;RC2_KEY*;char*;int) :  void  [[[./../../.././qc/crypto/rc2/rc2_cbc.c.html#74]]]
RC2_encrypt(long*;RC2_KEY*) :  void  [[[./../../.././qc/crypto/rc2/rc2_cbc.c.html#149]]]
RC2_decrypt(long*;RC2_KEY*) :  void  [[[./../../.././qc/crypto/rc2/rc2_cbc.c.html#195]]]
} 
@enduml

PlantUML version 1.2022.7(Mon Aug 22 17:01:30 UTC 2022)
(GPL source distribution)
Java Runtime: OpenJDK Runtime Environment
JVM: OpenJDK 64-Bit Server VM
Default Encoding: UTF-8
Language: en
Country: null
--></g></svg>