<?xml version="1.0" encoding="UTF-8" standalone="no"?><svg xmlns="http://www.w3.org/2000/svg" xmlns:xlink="http://www.w3.org/1999/xlink" contentStyleType="text/css" height="77px" preserveAspectRatio="none" style="width:692px;height:77px;background:#FFFFFF;" version="1.1" viewBox="0 0 692 77" width="692px" zoomAndPan="magnify"><defs/><g><!--MD5=[28a33587cab88bd185cb6d3cb19015ac]
class dummy--><g id="elem_dummy"><rect codeLine="2" fill="#F1F1F1" height="64.2969" id="dummy" rx="2.5" ry="2.5" style="stroke:#181818;stroke-width:0.5;" width="678" x="7" y="6.2969"/><ellipse cx="316.25" cy="22.2969" fill="#ADD1B2" rx="11" ry="11" style="stroke:#181818;stroke-width:1.0;"/><path d="M319.2188,27.9375 Q318.6406,28.2344 318,28.375 Q317.3594,28.5313 316.6563,28.5313 Q314.1563,28.5313 312.8281,26.8906 Q311.5156,25.2344 311.5156,22.1094 Q311.5156,18.9844 312.8281,17.3281 Q314.1563,15.6719 316.6563,15.6719 Q317.3594,15.6719 318,15.8281 Q318.6563,15.9844 319.2188,16.2813 L319.2188,19 Q318.5938,18.4219 318,18.1563 Q317.4063,17.875 316.7813,17.875 Q315.4375,17.875 314.75,18.9531 Q314.0625,20.0156 314.0625,22.1094 Q314.0625,24.2031 314.75,25.2813 Q315.4375,26.3438 316.7813,26.3438 Q317.4063,26.3438 318,26.0781 Q318.5938,25.7969 319.2188,25.2188 L319.2188,27.9375 Z " fill="#000000"/><text fill="#000000" font-family="sans-serif" font-size="14" lengthAdjust="spacing" textLength="51" x="336.75" y="27.1436">dummy</text><line style="stroke:#181818;stroke-width:0.5;" x1="8" x2="684" y1="38.2969" y2="38.2969"/><line style="stroke:#181818;stroke-width:0.5;" x1="8" x2="684" y1="46.2969" y2="46.2969"/><a href="./../../.././qc/crypto/rc2/rc2cfb64.c.html#80" target="_top" title="./../../.././qc/crypto/rc2/rc2cfb64.c.html#80" xlink:actuate="onRequest" xlink:href="./../../.././qc/crypto/rc2/rc2cfb64.c.html#80" xlink:show="new" xlink:title="./../../.././qc/crypto/rc2/rc2cfb64.c.html#80" xlink:type="simple"><text fill="#000000" font-family="sans-serif" font-size="14" lengthAdjust="spacing" textLength="666" x="13" y="63.292">RC2_cfb64_encrypt(unsignedchar*;unsignedchar*;long;RC2_KEY*;unsignedchar*;int*;int) :  void</text></a></g><!--MD5=[69a73c71c541b36798e80ec5f7a62dbf]
@startuml
!pragma layout smetana
class dummy {
RC2_cfb64_encrypt(unsignedchar*;unsignedchar*;long;RC2_KEY*;unsignedchar*;int*;int) :  void  [[[./../../.././qc/crypto/rc2/rc2cfb64.c.html#80]]]
} 
@enduml

PlantUML version 1.2022.7(Mon Aug 22 17:01:30 UTC 2022)
(GPL source distribution)
Java Runtime: OpenJDK Runtime Environment
JVM: OpenJDK 64-Bit Server VM
Default Encoding: UTF-8
Language: en
Country: null
--></g></svg>