<svg xmlns="http://www.w3.org/2000/svg" xmlns:xlink="http://www.w3.org/1999/xlink" contentStyleType="text/css" data-diagram-type="CLASS" height="77px" preserveAspectRatio="none" style="width:705px;height:77px;background:#FFFFFF;" version="1.1" viewBox="0 0 705 77" width="705px" zoomAndPan="magnify"><?plantuml 1.2026.6?><defs/><g><!--class dummy--><g class="entity" data-qualified-name="dummy" data-source-line="2" id="ent0001"><rect fill="#F1F1F1" height="64.2969" rx="2.5" ry="2.5" style="stroke:#181818;stroke-width:0.5;" width="683.248" x="6" y="12"/><ellipse cx="316.7139" cy="28" fill="#ADD1B2" rx="11" ry="11" style="stroke:#181818;stroke-width:1;"/><path d="M319.6826,33.6406 Q319.1045,33.9375 318.4639,34.0781 Q317.8232,34.2344 317.1201,34.2344 Q314.6201,34.2344 313.292,32.5938 Q311.9795,30.9375 311.9795,27.8125 Q311.9795,24.6875 313.292,23.0313 Q314.6201,21.375 317.1201,21.375 Q317.8232,21.375 318.4639,21.5313 Q319.1201,21.6875 319.6826,21.9844 L319.6826,24.7031 Q319.0576,24.125 318.4639,23.8594 Q317.8701,23.5781 317.2451,23.5781 Q315.9014,23.5781 315.2139,24.6563 Q314.5264,25.7188 314.5264,27.8125 Q314.5264,29.9063 315.2139,30.9844 Q315.9014,32.0469 317.2451,32.0469 Q317.8701,32.0469 318.4639,31.7813 Q319.0576,31.5 319.6826,30.9219 L319.6826,33.6406 Z " fill="#000000"/><text fill="#000000" font-family="sans-serif" font-size="14" lengthAdjust="spacing" textLength="53.3203" x="337.2139" y="32.8467">dummy</text><line style="stroke:#181818;stroke-width:0.5;" x1="7" x2="688.248" y1="44" y2="44"/><line style="stroke:#181818;stroke-width:0.5;" x1="7" x2="688.248" y1="52" y2="52"/><a href="./../../.././qc/crypto/rc2/rc2cfb64.c.html#80" target="_top" title="./../../.././qc/crypto/rc2/rc2cfb64.c.html#80" xlink:actuate="onRequest" xlink:href="./../../.././qc/crypto/rc2/rc2cfb64.c.html#80" xlink:show="new" xlink:title="./../../.././qc/crypto/rc2/rc2cfb64.c.html#80" xlink:type="simple"><text fill="#000000" font-family="sans-serif" font-size="14" lengthAdjust="spacing" textLength="671.248" x="12" y="68.9951">RC2_cfb64_encrypt(unsignedchar*;unsignedchar*;long;RC2_KEY*;unsignedchar*;int*;int) :  void</text></a></g><?plantuml-src KomeIapFJLJ8IQpCBorHACvDBKdCI-HApaaiBbP8AStDhLIevWfoDefFJaioCubFpKikgYmeqIZDAyvCpqjDISv8BDAoHkNbvEUbMuEqUBj6eijbvfM02Kq5AmM5ilpC50M5wEXeFNqzED8lJDO7sv6lNvHi1C9Wc_MIzJ9ASdEKBGnYOsEvQXK0?></g></svg>