<?xml version="1.0" encoding="UTF-8" standalone="no"?><svg xmlns="http://www.w3.org/2000/svg" xmlns:xlink="http://www.w3.org/1999/xlink" contentStyleType="text/css" height="77px" preserveAspectRatio="none" style="width:497px;height:77px;background:#FFFFFF;" version="1.1" viewBox="0 0 497 77" width="497px" zoomAndPan="magnify"><defs/><g><!--MD5=[28a33587cab88bd185cb6d3cb19015ac]
class dummy--><g id="elem_dummy"><rect codeLine="2" fill="#F1F1F1" height="64.2969" id="dummy" rx="2.5" ry="2.5" style="stroke:#181818;stroke-width:0.5;" width="483" x="7" y="6.2969"/><ellipse cx="218.75" cy="22.2969" fill="#ADD1B2" rx="11" ry="11" style="stroke:#181818;stroke-width:1.0;"/><path d="M221.7188,27.9375 Q221.1406,28.2344 220.5,28.375 Q219.8594,28.5313 219.1563,28.5313 Q216.6563,28.5313 215.3281,26.8906 Q214.0156,25.2344 214.0156,22.1094 Q214.0156,18.9844 215.3281,17.3281 Q216.6563,15.6719 219.1563,15.6719 Q219.8594,15.6719 220.5,15.8281 Q221.1563,15.9844 221.7188,16.2813 L221.7188,19 Q221.0938,18.4219 220.5,18.1563 Q219.9063,17.875 219.2813,17.875 Q217.9375,17.875 217.25,18.9531 Q216.5625,20.0156 216.5625,22.1094 Q216.5625,24.2031 217.25,25.2813 Q217.9375,26.3438 219.2813,26.3438 Q219.9063,26.3438 220.5,26.0781 Q221.0938,25.7969 221.7188,25.2188 L221.7188,27.9375 Z " fill="#000000"/><text fill="#000000" font-family="sans-serif" font-size="14" lengthAdjust="spacing" textLength="51" x="239.25" y="27.1436">dummy</text><line style="stroke:#181818;stroke-width:0.5;" x1="8" x2="489" y1="38.2969" y2="38.2969"/><line style="stroke:#181818;stroke-width:0.5;" x1="8" x2="489" y1="46.2969" y2="46.2969"/><a href="./../../.././qc/crypto/rc2/rc2cfb64.c.html#80" target="_top" title="./../../.././qc/crypto/rc2/rc2cfb64.c.html#80" xlink:actuate="onRequest" xlink:href="./../../.././qc/crypto/rc2/rc2cfb64.c.html#80" xlink:show="new" xlink:title="./../../.././qc/crypto/rc2/rc2cfb64.c.html#80" xlink:type="simple"><text fill="#000000" font-family="sans-serif" font-size="14" lengthAdjust="spacing" textLength="471" x="13" y="63.292">RC2_cfb64_encrypt(char*;char*;long;RC2_KEY*;char*;int*;int) :  void</text></a></g><!--MD5=[e24f0c16fdbf98266d7cde93a41e42bc]
@startuml
!pragma layout smetana
class dummy {
RC2_cfb64_encrypt(char*;char*;long;RC2_KEY*;char*;int*;int) :  void  [[[./../../.././qc/crypto/rc2/rc2cfb64.c.html#80]]]
} 
@enduml

PlantUML version 1.2022.7(Mon Aug 22 17:01:30 UTC 2022)
(GPL source distribution)
Java Runtime: OpenJDK Runtime Environment
JVM: OpenJDK 64-Bit Server VM
Default Encoding: UTF-8
Language: en
Country: null
--></g></svg>