<svg xmlns="http://www.w3.org/2000/svg" xmlns:xlink="http://www.w3.org/1999/xlink" contentStyleType="text/css" data-diagram-type="CLASS" height="77px" preserveAspectRatio="none" style="width:683px;height:77px;background:#FFFFFF;" version="1.1" viewBox="0 0 683 77" width="683px" zoomAndPan="magnify"><?plantuml 1.2026.6?><defs/><g><!--class dummy--><g class="entity" data-qualified-name="dummy" data-source-line="2" id="ent0001"><rect fill="#F1F1F1" height="64.2969" rx="2.5" ry="2.5" style="stroke:#181818;stroke-width:0.5;" width="661.1475" x="6" y="12"/><ellipse cx="305.6636" cy="28" fill="#ADD1B2" rx="11" ry="11" style="stroke:#181818;stroke-width:1;"/><path d="M308.6323,33.6406 Q308.0542,33.9375 307.4136,34.0781 Q306.7729,34.2344 306.0698,34.2344 Q303.5698,34.2344 302.2417,32.5938 Q300.9292,30.9375 300.9292,27.8125 Q300.9292,24.6875 302.2417,23.0313 Q303.5698,21.375 306.0698,21.375 Q306.7729,21.375 307.4136,21.5313 Q308.0698,21.6875 308.6323,21.9844 L308.6323,24.7031 Q308.0073,24.125 307.4136,23.8594 Q306.8198,23.5781 306.1948,23.5781 Q304.8511,23.5781 304.1636,24.6563 Q303.4761,25.7188 303.4761,27.8125 Q303.4761,29.9063 304.1636,30.9844 Q304.8511,32.0469 306.1948,32.0469 Q306.8198,32.0469 307.4136,31.7813 Q308.0073,31.5 308.6323,30.9219 L308.6323,33.6406 Z " fill="#000000"/><text fill="#000000" font-family="sans-serif" font-size="14" lengthAdjust="spacing" textLength="53.3203" x="326.1636" y="32.8467">dummy</text><line style="stroke:#181818;stroke-width:0.5;" x1="7" x2="666.1475" y1="44" y2="44"/><line style="stroke:#181818;stroke-width:0.5;" x1="7" x2="666.1475" y1="52" y2="52"/><a href="./../../.././qc/crypto/rc2/rc2ofb64.c.html#79" target="_top" title="./../../.././qc/crypto/rc2/rc2ofb64.c.html#79" xlink:actuate="onRequest" xlink:href="./../../.././qc/crypto/rc2/rc2ofb64.c.html#79" xlink:show="new" xlink:title="./../../.././qc/crypto/rc2/rc2ofb64.c.html#79" xlink:type="simple"><text fill="#000000" font-family="sans-serif" font-size="14" lengthAdjust="spacing" textLength="649.1475" x="12" y="68.9951">RC2_ofb64_encrypt(unsignedchar*;unsignedchar*;long;RC2_KEY*;unsignedchar*;int*) :  void</text></a></g><?plantuml-src KomeIapFJLJ8IQpCBorHACvDBKdCI-HApaaiBbP8AStDhLIevWfoDehFJqioCubFpKikgYmeqIZDAyvCpqjDISv8BDAoHkNbvEUbMuEqUBj6eijbvfLeQIfOAIYKvMUcA2X4HqVhwUl1aNvXiZxO_7pzecGZ40RRgfUibr6IcwDiRXaR6yjLgm00?></g></svg>