<?xml version="1.0" encoding="UTF-8" standalone="no"?><svg xmlns="http://www.w3.org/2000/svg" xmlns:xlink="http://www.w3.org/1999/xlink" contentStyleType="text/css" height="93px" preserveAspectRatio="none" style="width:409px;height:93px;background:#FFFFFF;" version="1.1" viewBox="0 0 409 93" width="409px" zoomAndPan="magnify"><defs/><g><!--MD5=[28a33587cab88bd185cb6d3cb19015ac]
class dummy--><g id="elem_dummy"><rect codeLine="2" fill="#F1F1F1" height="80.5938" id="dummy" rx="2.5" ry="2.5" style="stroke:#181818;stroke-width:0.5;" width="395" x="7" y="5.5938"/><ellipse cx="174.75" cy="21.5938" fill="#ADD1B2" rx="11" ry="11" style="stroke:#181818;stroke-width:1.0;"/><path d="M177.7188,27.2344 Q177.1406,27.5313 176.5,27.6719 Q175.8594,27.8281 175.1563,27.8281 Q172.6563,27.8281 171.3281,26.1875 Q170.0156,24.5313 170.0156,21.4063 Q170.0156,18.2813 171.3281,16.625 Q172.6563,14.9688 175.1563,14.9688 Q175.8594,14.9688 176.5,15.125 Q177.1563,15.2813 177.7188,15.5781 L177.7188,18.2969 Q177.0938,17.7188 176.5,17.4531 Q175.9063,17.1719 175.2813,17.1719 Q173.9375,17.1719 173.25,18.25 Q172.5625,19.3125 172.5625,21.4063 Q172.5625,23.5 173.25,24.5781 Q173.9375,25.6406 175.2813,25.6406 Q175.9063,25.6406 176.5,25.375 Q177.0938,25.0938 177.7188,24.5156 L177.7188,27.2344 Z " fill="#000000"/><text fill="#000000" font-family="sans-serif" font-size="14" lengthAdjust="spacing" textLength="51" x="195.25" y="26.4404">dummy</text><line style="stroke:#181818;stroke-width:0.5;" x1="8" x2="401" y1="37.5938" y2="37.5938"/><line style="stroke:#181818;stroke-width:0.5;" x1="8" x2="401" y1="45.5938" y2="45.5938"/><a href="./../.././qc/apps/s_server.c.html#244" target="_top" title="./../.././qc/apps/s_server.c.html#244" xlink:actuate="onRequest" xlink:href="./../.././qc/apps/s_server.c.html#244" xlink:show="new" xlink:title="./../.././qc/apps/s_server.c.html#244" xlink:type="simple"><text fill="#000000" font-family="sans-serif" font-size="14" lengthAdjust="spacing" textLength="379" x="13" y="62.5889">tolower(int) :  int  __attribute__ (( __nothrow__ ,__leaf__))</text></a><a href="./../.././qc/apps/s_server.c.html#250" target="_top" title="./../.././qc/apps/s_server.c.html#250" xlink:actuate="onRequest" xlink:href="./../.././qc/apps/s_server.c.html#250" xlink:show="new" xlink:title="./../.././qc/apps/s_server.c.html#250" xlink:type="simple"><text fill="#000000" font-family="sans-serif" font-size="14" lengthAdjust="spacing" textLength="383" x="13" y="78.8857">toupper(int) :  int  __attribute__ (( __nothrow__ ,__leaf__))</text></a></g><!--MD5=[1e92016eb99019e8ccc64d5a10eb4367]
@startuml
!pragma layout smetana
class dummy {
tolower(int) :  int  __attribute__ (( __nothrow__ ,__leaf__)) [[[./../.././qc/apps/s_server.c.html#244]]]
toupper(int) :  int  __attribute__ (( __nothrow__ ,__leaf__)) [[[./../.././qc/apps/s_server.c.html#250]]]
} 
@enduml

PlantUML version 1.2022.7(Mon Aug 22 17:01:30 UTC 2022)
(GPL source distribution)
Java Runtime: OpenJDK Runtime Environment
JVM: OpenJDK 64-Bit Server VM
Default Encoding: UTF-8
Language: en
Country: null
--></g></svg>