<?xml version="1.0" encoding="UTF-8" standalone="no"?><svg xmlns="http://www.w3.org/2000/svg" xmlns:xlink="http://www.w3.org/1999/xlink" contentStyleType="text/css" height="93px" preserveAspectRatio="none" style="width:510px;height:93px;background:#FFFFFF;" version="1.1" viewBox="0 0 510 93" width="510px" zoomAndPan="magnify"><defs/><g><!--MD5=[28a33587cab88bd185cb6d3cb19015ac]
class dummy--><g id="elem_dummy"><rect codeLine="2" fill="#F1F1F1" height="80.5938" id="dummy" rx="2.5" ry="2.5" style="stroke:#181818;stroke-width:0.5;" width="496" x="7" y="5.5938"/><ellipse cx="225.25" cy="21.5938" fill="#ADD1B2" rx="11" ry="11" style="stroke:#181818;stroke-width:1.0;"/><path d="M228.2188,27.2344 Q227.6406,27.5313 227,27.6719 Q226.3594,27.8281 225.6563,27.8281 Q223.1563,27.8281 221.8281,26.1875 Q220.5156,24.5313 220.5156,21.4063 Q220.5156,18.2813 221.8281,16.625 Q223.1563,14.9688 225.6563,14.9688 Q226.3594,14.9688 227,15.125 Q227.6563,15.2813 228.2188,15.5781 L228.2188,18.2969 Q227.5938,17.7188 227,17.4531 Q226.4063,17.1719 225.7813,17.1719 Q224.4375,17.1719 223.75,18.25 Q223.0625,19.3125 223.0625,21.4063 Q223.0625,23.5 223.75,24.5781 Q224.4375,25.6406 225.7813,25.6406 Q226.4063,25.6406 227,25.375 Q227.5938,25.0938 228.2188,24.5156 L228.2188,27.2344 Z " fill="#000000"/><text fill="#000000" font-family="sans-serif" font-size="14" lengthAdjust="spacing" textLength="51" x="245.75" y="26.4404">dummy</text><line style="stroke:#181818;stroke-width:0.5;" x1="8" x2="502" y1="37.5938" y2="37.5938"/><line style="stroke:#181818;stroke-width:0.5;" x1="8" x2="502" y1="45.5938" y2="45.5938"/><a href="./../../.././qc/crypto/bio/bio_addr.c.html#354" target="_top" title="./../../.././qc/crypto/bio/bio_addr.c.html#354" xlink:actuate="onRequest" xlink:href="./../../.././qc/crypto/bio/bio_addr.c.html#354" xlink:show="new" xlink:title="./../../.././qc/crypto/bio/bio_addr.c.html#354" xlink:type="simple"><text fill="#000000" font-family="sans-serif" font-size="14" lengthAdjust="spacing" textLength="484" x="13" y="62.5889">bcopy(void*;void*;size_t) :  void  __attribute__ (( __nothrow__ ,__leaf__))</text></a><a href="./../../.././qc/crypto/bio/bio_addr.c.html#361" target="_top" title="./../../.././qc/crypto/bio/bio_addr.c.html#361" xlink:actuate="onRequest" xlink:href="./../../.././qc/crypto/bio/bio_addr.c.html#361" xlink:show="new" xlink:title="./../../.././qc/crypto/bio/bio_addr.c.html#361" xlink:type="simple"><text fill="#000000" font-family="sans-serif" font-size="14" lengthAdjust="spacing" textLength="442" x="13" y="78.8857">bzero(void*;size_t) :  void  __attribute__ (( __nothrow__ ,__leaf__))</text></a></g><!--MD5=[b27eedc3a709db6c69349f7a7c5ebe59]
@startuml
!pragma layout smetana
class dummy {
bcopy(void*;void*;size_t) :  void  __attribute__ (( __nothrow__ ,__leaf__)) [[[./../../.././qc/crypto/bio/bio_addr.c.html#354]]]
bzero(void*;size_t) :  void  __attribute__ (( __nothrow__ ,__leaf__)) [[[./../../.././qc/crypto/bio/bio_addr.c.html#361]]]
} 
@enduml

PlantUML version 1.2022.7(Mon Aug 22 17:01:30 UTC 2022)
(GPL source distribution)
Java Runtime: OpenJDK Runtime Environment
JVM: OpenJDK 64-Bit Server VM
Default Encoding: UTF-8
Language: en
Country: null
--></g></svg>