<svg xmlns="http://www.w3.org/2000/svg" xmlns:xlink="http://www.w3.org/1999/xlink" contentStyleType="text/css" data-diagram-type="CLASS" height="77px" preserveAspectRatio="none" style="width:263px;height:77px;background:#FFFFFF;" version="1.1" viewBox="0 0 263 77" width="263px" zoomAndPan="magnify"><?plantuml 1.2026.6?><defs/><g><!--class dummy--><g class="entity" data-qualified-name="dummy" data-source-line="2" id="ent0001"><rect fill="#F1F1F1" height="64.2969" rx="2.5" ry="2.5" style="stroke:#181818;stroke-width:0.5;" width="241.1475" x="6" y="12"/><ellipse cx="95.6636" cy="28" fill="#ADD1B2" rx="11" ry="11" style="stroke:#181818;stroke-width:1;"/><path d="M98.6323,33.6406 Q98.0542,33.9375 97.4136,34.0781 Q96.7729,34.2344 96.0698,34.2344 Q93.5698,34.2344 92.2417,32.5938 Q90.9292,30.9375 90.9292,27.8125 Q90.9292,24.6875 92.2417,23.0313 Q93.5698,21.375 96.0698,21.375 Q96.7729,21.375 97.4136,21.5313 Q98.0698,21.6875 98.6323,21.9844 L98.6323,24.7031 Q98.0073,24.125 97.4136,23.8594 Q96.8198,23.5781 96.1948,23.5781 Q94.8511,23.5781 94.1636,24.6563 Q93.4761,25.7188 93.4761,27.8125 Q93.4761,29.9063 94.1636,30.9844 Q94.8511,32.0469 96.1948,32.0469 Q96.8198,32.0469 97.4136,31.7813 Q98.0073,31.5 98.6323,30.9219 L98.6323,33.6406 Z " fill="#000000"/><text fill="#000000" font-family="sans-serif" font-size="14" lengthAdjust="spacing" textLength="53.3203" x="116.1636" y="32.8467">dummy</text><line style="stroke:#181818;stroke-width:0.5;" x1="7" x2="246.1475" y1="44" y2="44"/><line style="stroke:#181818;stroke-width:0.5;" x1="7" x2="246.1475" y1="52" y2="52"/><a href="./../.././qc/ssl/ssl_err_legacy.c.html#348" target="_top" title="./../.././qc/ssl/ssl_err_legacy.c.html#348" xlink:actuate="onRequest" xlink:href="./../.././qc/ssl/ssl_err_legacy.c.html#348" xlink:show="new" xlink:title="./../.././qc/ssl/ssl_err_legacy.c.html#348" xlink:type="simple"><text fill="#000000" font-family="sans-serif" font-size="14" lengthAdjust="spacing" textLength="229.1475" x="12" y="68.9951">ERR_load_SSL_strings(void) :  int</text></a></g><?plantuml-src 9SCn2m8X503WtL_nufPQTBY6Q6zhkXj5vA5YmbCxdnT8zDyZWkyxF1l6Z40uwjw1S-XOK3X2Pl1xpWFUuhOibYfwkwvtoxsb4ldugicVu0gGIWVGMaib_zJc53Fzsj2QfH3H3UdaesUQvlF562C-y0K0?></g></svg>