<?xml version="1.0" encoding="UTF-8" standalone="no"?><svg xmlns="http://www.w3.org/2000/svg" xmlns:xlink="http://www.w3.org/1999/xlink" contentStyleType="text/css" height="77px" preserveAspectRatio="none" style="width:249px;height:77px;background:#FFFFFF;" version="1.1" viewBox="0 0 249 77" width="249px" zoomAndPan="magnify"><defs/><g><!--MD5=[28a33587cab88bd185cb6d3cb19015ac]
class dummy--><g id="elem_dummy"><rect codeLine="2" fill="#F1F1F1" height="64.2969" id="dummy" rx="2.5" ry="2.5" style="stroke:#181818;stroke-width:0.5;" width="235" x="7" y="6.2969"/><ellipse cx="94.75" cy="22.2969" fill="#ADD1B2" rx="11" ry="11" style="stroke:#181818;stroke-width:1.0;"/><path d="M97.7188,27.9375 Q97.1406,28.2344 96.5,28.375 Q95.8594,28.5313 95.1563,28.5313 Q92.6563,28.5313 91.3281,26.8906 Q90.0156,25.2344 90.0156,22.1094 Q90.0156,18.9844 91.3281,17.3281 Q92.6563,15.6719 95.1563,15.6719 Q95.8594,15.6719 96.5,15.8281 Q97.1563,15.9844 97.7188,16.2813 L97.7188,19 Q97.0938,18.4219 96.5,18.1563 Q95.9063,17.875 95.2813,17.875 Q93.9375,17.875 93.25,18.9531 Q92.5625,20.0156 92.5625,22.1094 Q92.5625,24.2031 93.25,25.2813 Q93.9375,26.3438 95.2813,26.3438 Q95.9063,26.3438 96.5,26.0781 Q97.0938,25.7969 97.7188,25.2188 L97.7188,27.9375 Z " fill="#000000"/><text fill="#000000" font-family="sans-serif" font-size="14" lengthAdjust="spacing" textLength="51" x="115.25" y="27.1436">dummy</text><line style="stroke:#181818;stroke-width:0.5;" x1="8" x2="241" y1="38.2969" y2="38.2969"/><line style="stroke:#181818;stroke-width:0.5;" x1="8" x2="241" y1="46.2969" y2="46.2969"/><a href="./../.././qc/ssl/ssl_err_legacy.c.html#347" target="_top" title="./../.././qc/ssl/ssl_err_legacy.c.html#347" xlink:actuate="onRequest" xlink:href="./../.././qc/ssl/ssl_err_legacy.c.html#347" xlink:show="new" xlink:title="./../.././qc/ssl/ssl_err_legacy.c.html#347" xlink:type="simple"><text fill="#000000" font-family="sans-serif" font-size="14" lengthAdjust="spacing" textLength="223" x="13" y="63.292">ERR_load_SSL_strings(void) :  int</text></a></g><!--MD5=[46a17f136706c827db1f5ba3ba66bb49]
@startuml
!pragma layout smetana
class dummy {
ERR_load_SSL_strings(void) :  int  [[[./../.././qc/ssl/ssl_err_legacy.c.html#347]]]
} 
@enduml

PlantUML version 1.2022.7(Mon Aug 22 17:01:30 UTC 2022)
(GPL source distribution)
Java Runtime: OpenJDK Runtime Environment
JVM: OpenJDK 64-Bit Server VM
Default Encoding: UTF-8
Language: en
Country: null
--></g></svg>