<svg xmlns="http://www.w3.org/2000/svg" xmlns:xlink="http://www.w3.org/1999/xlink" contentStyleType="text/css" data-diagram-type="CLASS" height="77px" preserveAspectRatio="none" style="width:684px;height:77px;background:#FFFFFF;" version="1.1" viewBox="0 0 684 77" width="684px" zoomAndPan="magnify"><?plantuml 1.2026.6?><defs/><g><!--class dummy--><g class="entity" data-qualified-name="dummy" data-source-line="2" id="ent0001"><rect fill="#F1F1F1" height="64.2969" rx="2.5" ry="2.5" style="stroke:#181818;stroke-width:0.5;" width="661.7422" x="6" y="12"/><ellipse cx="305.9609" cy="28" fill="#ADD1B2" rx="11" ry="11" style="stroke:#181818;stroke-width:1;"/><path d="M308.9297,33.6406 Q308.3516,33.9375 307.7109,34.0781 Q307.0703,34.2344 306.3672,34.2344 Q303.8672,34.2344 302.5391,32.5938 Q301.2266,30.9375 301.2266,27.8125 Q301.2266,24.6875 302.5391,23.0313 Q303.8672,21.375 306.3672,21.375 Q307.0703,21.375 307.7109,21.5313 Q308.3672,21.6875 308.9297,21.9844 L308.9297,24.7031 Q308.3047,24.125 307.7109,23.8594 Q307.1172,23.5781 306.4922,23.5781 Q305.1484,23.5781 304.4609,24.6563 Q303.7734,25.7188 303.7734,27.8125 Q303.7734,29.9063 304.4609,30.9844 Q305.1484,32.0469 306.4922,32.0469 Q307.1172,32.0469 307.7109,31.7813 Q308.3047,31.5 308.9297,30.9219 L308.9297,33.6406 Z " fill="#000000"/><text fill="#000000" font-family="sans-serif" font-size="14" lengthAdjust="spacing" textLength="53.3203" x="326.4609" y="32.8467">dummy</text><line style="stroke:#181818;stroke-width:0.5;" x1="7" x2="666.7422" y1="44" y2="44"/><line style="stroke:#181818;stroke-width:0.5;" x1="7" x2="666.7422" y1="52" y2="52"/><a href="./../../.././qc/crypto/bf/bf_cfb64.c.html#370" target="_top" title="./../../.././qc/crypto/bf/bf_cfb64.c.html#370" xlink:actuate="onRequest" xlink:href="./../../.././qc/crypto/bf/bf_cfb64.c.html#370" xlink:show="new" xlink:title="./../../.././qc/crypto/bf/bf_cfb64.c.html#370" xlink:type="simple"><text fill="#000000" font-family="sans-serif" font-size="14" lengthAdjust="spacing" textLength="649.7422" x="12" y="68.9951">BF_cfb64_encrypt(unsignedchar*;unsignedchar*;long;BF_KEY*;unsignedchar*;int*;int) :  void</text></a></g><?plantuml-src KomeIapFJLJ8IQpCBorHACvDBKdCI-HApaaiBbP8AStDhLIevd9oYqzEIp8pYK_DIowgB2ZHACqhpapFIqr9paWiqh96vUNavwLR0tLukqQYIsNcbO09JGKh1OMo_CmK1ONew6WzVJquqYzCrWTRaQ-Vb0P447lralKoId9pb8tD3M9ZOxbg5G00?></g></svg>