<?xml version="1.0" encoding="UTF-8" standalone="no"?><svg xmlns="http://www.w3.org/2000/svg" xmlns:xlink="http://www.w3.org/1999/xlink" contentStyleType="text/css" height="77px" preserveAspectRatio="none" style="width:670px;height:77px;background:#FFFFFF;" version="1.1" viewBox="0 0 670 77" width="670px" zoomAndPan="magnify"><defs/><g><!--MD5=[28a33587cab88bd185cb6d3cb19015ac]
class dummy--><g id="elem_dummy"><rect codeLine="2" fill="#F1F1F1" height="64.2969" id="dummy" rx="2.5" ry="2.5" style="stroke:#181818;stroke-width:0.5;" width="656" x="7" y="6.2969"/><ellipse cx="305.25" cy="22.2969" fill="#ADD1B2" rx="11" ry="11" style="stroke:#181818;stroke-width:1.0;"/><path d="M308.2188,27.9375 Q307.6406,28.2344 307,28.375 Q306.3594,28.5313 305.6563,28.5313 Q303.1563,28.5313 301.8281,26.8906 Q300.5156,25.2344 300.5156,22.1094 Q300.5156,18.9844 301.8281,17.3281 Q303.1563,15.6719 305.6563,15.6719 Q306.3594,15.6719 307,15.8281 Q307.6563,15.9844 308.2188,16.2813 L308.2188,19 Q307.5938,18.4219 307,18.1563 Q306.4063,17.875 305.7813,17.875 Q304.4375,17.875 303.75,18.9531 Q303.0625,20.0156 303.0625,22.1094 Q303.0625,24.2031 303.75,25.2813 Q304.4375,26.3438 305.7813,26.3438 Q306.4063,26.3438 307,26.0781 Q307.5938,25.7969 308.2188,25.2188 L308.2188,27.9375 Z " fill="#000000"/><text fill="#000000" font-family="sans-serif" font-size="14" lengthAdjust="spacing" textLength="51" x="325.75" y="27.1436">dummy</text><line style="stroke:#181818;stroke-width:0.5;" x1="8" x2="662" y1="38.2969" y2="38.2969"/><line style="stroke:#181818;stroke-width:0.5;" x1="8" x2="662" y1="46.2969" y2="46.2969"/><a href="./../../.././qc/crypto/bf/bf_cfb64.c.html#369" target="_top" title="./../../.././qc/crypto/bf/bf_cfb64.c.html#369" xlink:actuate="onRequest" xlink:href="./../../.././qc/crypto/bf/bf_cfb64.c.html#369" xlink:show="new" xlink:title="./../../.././qc/crypto/bf/bf_cfb64.c.html#369" xlink:type="simple"><text fill="#000000" font-family="sans-serif" font-size="14" lengthAdjust="spacing" textLength="644" x="13" y="63.292">BF_cfb64_encrypt(unsignedchar*;unsignedchar*;long;BF_KEY*;unsignedchar*;int*;int) :  void</text></a></g><!--MD5=[fc273458ad5f002f08806f67da62a665]
@startuml
!pragma layout smetana
class dummy {
BF_cfb64_encrypt(unsignedchar*;unsignedchar*;long;BF_KEY*;unsignedchar*;int*;int) :  void  [[[./../../.././qc/crypto/bf/bf_cfb64.c.html#369]]]
} 
@enduml

PlantUML version 1.2022.7(Mon Aug 22 17:01:30 UTC 2022)
(GPL source distribution)
Java Runtime: OpenJDK Runtime Environment
JVM: OpenJDK 64-Bit Server VM
Default Encoding: UTF-8
Language: en
Country: null
--></g></svg>