<?xml version="1.0" encoding="UTF-8" standalone="no"?><svg xmlns="http://www.w3.org/2000/svg" xmlns:xlink="http://www.w3.org/1999/xlink" contentStyleType="text/css" height="77px" preserveAspectRatio="none" style="width:475px;height:77px;background:#FFFFFF;" version="1.1" viewBox="0 0 475 77" width="475px" zoomAndPan="magnify"><defs/><g><!--MD5=[28a33587cab88bd185cb6d3cb19015ac]
class dummy--><g id="elem_dummy"><rect codeLine="2" fill="#F1F1F1" height="64.2969" id="dummy" rx="2.5" ry="2.5" style="stroke:#181818;stroke-width:0.5;" width="461" x="7" y="6.2969"/><ellipse cx="207.75" cy="22.2969" fill="#ADD1B2" rx="11" ry="11" style="stroke:#181818;stroke-width:1.0;"/><path d="M210.7188,27.9375 Q210.1406,28.2344 209.5,28.375 Q208.8594,28.5313 208.1563,28.5313 Q205.6563,28.5313 204.3281,26.8906 Q203.0156,25.2344 203.0156,22.1094 Q203.0156,18.9844 204.3281,17.3281 Q205.6563,15.6719 208.1563,15.6719 Q208.8594,15.6719 209.5,15.8281 Q210.1563,15.9844 210.7188,16.2813 L210.7188,19 Q210.0938,18.4219 209.5,18.1563 Q208.9063,17.875 208.2813,17.875 Q206.9375,17.875 206.25,18.9531 Q205.5625,20.0156 205.5625,22.1094 Q205.5625,24.2031 206.25,25.2813 Q206.9375,26.3438 208.2813,26.3438 Q208.9063,26.3438 209.5,26.0781 Q210.0938,25.7969 210.7188,25.2188 L210.7188,27.9375 Z " fill="#000000"/><text fill="#000000" font-family="sans-serif" font-size="14" lengthAdjust="spacing" textLength="51" x="228.25" y="27.1436">dummy</text><line style="stroke:#181818;stroke-width:0.5;" x1="8" x2="467" y1="38.2969" y2="38.2969"/><line style="stroke:#181818;stroke-width:0.5;" x1="8" x2="467" y1="46.2969" y2="46.2969"/><a href="./../../.././qc/crypto/bf/bf_cfb64.c.html#370" target="_top" title="./../../.././qc/crypto/bf/bf_cfb64.c.html#370" xlink:actuate="onRequest" xlink:href="./../../.././qc/crypto/bf/bf_cfb64.c.html#370" xlink:show="new" xlink:title="./../../.././qc/crypto/bf/bf_cfb64.c.html#370" xlink:type="simple"><text fill="#000000" font-family="sans-serif" font-size="14" lengthAdjust="spacing" textLength="449" x="13" y="63.292">BF_cfb64_encrypt(char*;char*;long;BF_KEY*;char*;int*;int) :  void</text></a></g><!--MD5=[ed19d6409195c99f79f94252810efb25]
@startuml
!pragma layout smetana
class dummy {
BF_cfb64_encrypt(char*;char*;long;BF_KEY*;char*;int*;int) :  void  [[[./../../.././qc/crypto/bf/bf_cfb64.c.html#370]]]
} 
@enduml

PlantUML version 1.2022.7(Mon Aug 22 17:01:30 UTC 2022)
(GPL source distribution)
Java Runtime: OpenJDK Runtime Environment
JVM: OpenJDK 64-Bit Server VM
Default Encoding: UTF-8
Language: en
Country: null
--></g></svg>