<?xml version="1.0" encoding="UTF-8" standalone="no"?><svg xmlns="http://www.w3.org/2000/svg" xmlns:xlink="http://www.w3.org/1999/xlink" contentStyleType="text/css" height="109px" preserveAspectRatio="none" style="width:432px;height:109px;background:#FFFFFF;" version="1.1" viewBox="0 0 432 109" width="432px" zoomAndPan="magnify"><defs/><g><!--MD5=[28a33587cab88bd185cb6d3cb19015ac]
class dummy--><g id="elem_dummy"><rect codeLine="2" fill="#F1F1F1" height="96.8906" id="dummy" rx="2.5" ry="2.5" style="stroke:#181818;stroke-width:0.5;" width="418" x="7" y="5.8906"/><ellipse cx="186.25" cy="21.8906" fill="#ADD1B2" rx="11" ry="11" style="stroke:#181818;stroke-width:1.0;"/><path d="M189.2188,27.5313 Q188.6406,27.8281 188,27.9688 Q187.3594,28.125 186.6563,28.125 Q184.1563,28.125 182.8281,26.4844 Q181.5156,24.8281 181.5156,21.7031 Q181.5156,18.5781 182.8281,16.9219 Q184.1563,15.2656 186.6563,15.2656 Q187.3594,15.2656 188,15.4219 Q188.6563,15.5781 189.2188,15.875 L189.2188,18.5938 Q188.5938,18.0156 188,17.75 Q187.4063,17.4688 186.7813,17.4688 Q185.4375,17.4688 184.75,18.5469 Q184.0625,19.6094 184.0625,21.7031 Q184.0625,23.7969 184.75,24.875 Q185.4375,25.9375 186.7813,25.9375 Q187.4063,25.9375 188,25.6719 Q188.5938,25.3906 189.2188,24.8125 L189.2188,27.5313 Z " fill="#000000"/><text fill="#000000" font-family="sans-serif" font-size="14" lengthAdjust="spacing" textLength="51" x="206.75" y="26.7373">dummy</text><line style="stroke:#181818;stroke-width:0.5;" x1="8" x2="424" y1="37.8906" y2="37.8906"/><line style="stroke:#181818;stroke-width:0.5;" x1="8" x2="424" y1="45.8906" y2="45.8906"/><a href="./../../.././qc/crypto/bf/bf_enc.c.html#364" target="_top" title="./../../.././qc/crypto/bf/bf_enc.c.html#364" xlink:actuate="onRequest" xlink:href="./../../.././qc/crypto/bf/bf_enc.c.html#364" xlink:show="new" xlink:title="./../../.././qc/crypto/bf/bf_enc.c.html#364" xlink:type="simple"><text fill="#000000" font-family="sans-serif" font-size="14" lengthAdjust="spacing" textLength="220" x="13" y="62.8857">BF_encrypt(int*;BF_KEY*) :  void</text></a><a href="./../../.././qc/crypto/bf/bf_enc.c.html#403" target="_top" title="./../../.././qc/crypto/bf/bf_enc.c.html#403" xlink:actuate="onRequest" xlink:href="./../../.././qc/crypto/bf/bf_enc.c.html#403" xlink:show="new" xlink:title="./../../.././qc/crypto/bf/bf_enc.c.html#403" xlink:type="simple"><text fill="#000000" font-family="sans-serif" font-size="14" lengthAdjust="spacing" textLength="220" x="13" y="79.1826">BF_decrypt(int*;BF_KEY*) :  void</text></a><a href="./../../.././qc/crypto/bf/bf_enc.c.html#442" target="_top" title="./../../.././qc/crypto/bf/bf_enc.c.html#442" xlink:actuate="onRequest" xlink:href="./../../.././qc/crypto/bf/bf_enc.c.html#442" xlink:show="new" xlink:title="./../../.././qc/crypto/bf/bf_enc.c.html#442" xlink:type="simple"><text fill="#000000" font-family="sans-serif" font-size="14" lengthAdjust="spacing" textLength="406" x="13" y="95.4795">BF_cbc_encrypt(char*;char*;long;BF_KEY*;char*;int) :  void</text></a></g><!--MD5=[508c9760a7cd0cfa28a17862b001ae5b]
@startuml
!pragma layout smetana
class dummy {
BF_encrypt(int*;BF_KEY*) :  void  [[[./../../.././qc/crypto/bf/bf_enc.c.html#364]]]
BF_decrypt(int*;BF_KEY*) :  void  [[[./../../.././qc/crypto/bf/bf_enc.c.html#403]]]
BF_cbc_encrypt(char*;char*;long;BF_KEY*;char*;int) :  void  [[[./../../.././qc/crypto/bf/bf_enc.c.html#442]]]
} 
@enduml

PlantUML version 1.2022.7(Mon Aug 22 17:01:30 UTC 2022)
(GPL source distribution)
Java Runtime: OpenJDK Runtime Environment
JVM: OpenJDK 64-Bit Server VM
Default Encoding: UTF-8
Language: en
Country: null
--></g></svg>