<?xml version="1.0" encoding="UTF-8" standalone="no"?><svg xmlns="http://www.w3.org/2000/svg" xmlns:xlink="http://www.w3.org/1999/xlink" contentStyleType="text/css" height="93px" preserveAspectRatio="none" style="width:356px;height:93px;background:#FFFFFF;" version="1.1" viewBox="0 0 356 93" width="356px" zoomAndPan="magnify"><defs/><g><!--MD5=[28a33587cab88bd185cb6d3cb19015ac]
class dummy--><g id="elem_dummy"><rect codeLine="2" fill="#F1F1F1" height="80.5938" id="dummy" rx="2.5" ry="2.5" style="stroke:#181818;stroke-width:0.5;" width="342" x="7" y="5.5938"/><ellipse cx="148.25" cy="21.5938" fill="#ADD1B2" rx="11" ry="11" style="stroke:#181818;stroke-width:1.0;"/><path d="M151.2188,27.2344 Q150.6406,27.5313 150,27.6719 Q149.3594,27.8281 148.6563,27.8281 Q146.1563,27.8281 144.8281,26.1875 Q143.5156,24.5313 143.5156,21.4063 Q143.5156,18.2813 144.8281,16.625 Q146.1563,14.9688 148.6563,14.9688 Q149.3594,14.9688 150,15.125 Q150.6563,15.2813 151.2188,15.5781 L151.2188,18.2969 Q150.5938,17.7188 150,17.4531 Q149.4063,17.1719 148.7813,17.1719 Q147.4375,17.1719 146.75,18.25 Q146.0625,19.3125 146.0625,21.4063 Q146.0625,23.5 146.75,24.5781 Q147.4375,25.6406 148.7813,25.6406 Q149.4063,25.6406 150,25.375 Q150.5938,25.0938 151.2188,24.5156 L151.2188,27.2344 Z " fill="#000000"/><text fill="#000000" font-family="sans-serif" font-size="14" lengthAdjust="spacing" textLength="51" x="168.75" y="26.4404">dummy</text><line style="stroke:#181818;stroke-width:0.5;" x1="8" x2="348" y1="37.5938" y2="37.5938"/><line style="stroke:#181818;stroke-width:0.5;" x1="8" x2="348" y1="45.5938" y2="45.5938"/><a href="./../../.././qc/crypto/bf/bf_ecb.c.html#364" target="_top" title="./../../.././qc/crypto/bf/bf_ecb.c.html#364" xlink:actuate="onRequest" xlink:href="./../../.././qc/crypto/bf/bf_ecb.c.html#364" xlink:show="new" xlink:title="./../../.././qc/crypto/bf/bf_ecb.c.html#364" xlink:type="simple"><text fill="#000000" font-family="sans-serif" font-size="14" lengthAdjust="spacing" textLength="162" x="13" y="62.5889">BF_options(void) :  char</text></a><a href="./../../.././qc/crypto/bf/bf_ecb.c.html#369" target="_top" title="./../../.././qc/crypto/bf/bf_ecb.c.html#369" xlink:actuate="onRequest" xlink:href="./../../.././qc/crypto/bf/bf_ecb.c.html#369" xlink:show="new" xlink:title="./../../.././qc/crypto/bf/bf_ecb.c.html#369" xlink:type="simple"><text fill="#000000" font-family="sans-serif" font-size="14" lengthAdjust="spacing" textLength="330" x="13" y="78.8857">BF_ecb_encrypt(char*;char*;BF_KEY*;int) :  void</text></a></g><!--MD5=[bf055add044a3a5a50470139b5d4e78f]
@startuml
!pragma layout smetana
class dummy {
BF_options(void) :  char  [[[./../../.././qc/crypto/bf/bf_ecb.c.html#364]]]
BF_ecb_encrypt(char*;char*;BF_KEY*;int) :  void  [[[./../../.././qc/crypto/bf/bf_ecb.c.html#369]]]
} 
@enduml

PlantUML version 1.2022.7(Mon Aug 22 17:01:30 UTC 2022)
(GPL source distribution)
Java Runtime: OpenJDK Runtime Environment
JVM: OpenJDK 64-Bit Server VM
Default Encoding: UTF-8
Language: en
Country: null
--></g></svg>