<?xml version="1.0" encoding="UTF-8" standalone="no"?><svg xmlns="http://www.w3.org/2000/svg" xmlns:xlink="http://www.w3.org/1999/xlink" contentStyleType="text/css" height="109px" preserveAspectRatio="none" style="width:627px;height:109px;background:#FFFFFF;" version="1.1" viewBox="0 0 627 109" width="627px" zoomAndPan="magnify"><defs/><g><!--MD5=[28a33587cab88bd185cb6d3cb19015ac]
class dummy--><g id="elem_dummy"><rect codeLine="2" fill="#F1F1F1" height="96.8906" id="dummy" rx="2.5" ry="2.5" style="stroke:#181818;stroke-width:0.5;" width="613" x="7" y="5.8906"/><ellipse cx="283.75" cy="21.8906" fill="#ADD1B2" rx="11" ry="11" style="stroke:#181818;stroke-width:1.0;"/><path d="M286.7188,27.5313 Q286.1406,27.8281 285.5,27.9688 Q284.8594,28.125 284.1563,28.125 Q281.6563,28.125 280.3281,26.4844 Q279.0156,24.8281 279.0156,21.7031 Q279.0156,18.5781 280.3281,16.9219 Q281.6563,15.2656 284.1563,15.2656 Q284.8594,15.2656 285.5,15.4219 Q286.1563,15.5781 286.7188,15.875 L286.7188,18.5938 Q286.0938,18.0156 285.5,17.75 Q284.9063,17.4688 284.2813,17.4688 Q282.9375,17.4688 282.25,18.5469 Q281.5625,19.6094 281.5625,21.7031 Q281.5625,23.7969 282.25,24.875 Q282.9375,25.9375 284.2813,25.9375 Q284.9063,25.9375 285.5,25.6719 Q286.0938,25.3906 286.7188,24.8125 L286.7188,27.5313 Z " fill="#000000"/><text fill="#000000" font-family="sans-serif" font-size="14" lengthAdjust="spacing" textLength="51" x="304.25" y="26.7373">dummy</text><line style="stroke:#181818;stroke-width:0.5;" x1="8" x2="619" y1="37.8906" y2="37.8906"/><line style="stroke:#181818;stroke-width:0.5;" x1="8" x2="619" y1="45.8906" y2="45.8906"/><a href="./../../.././qc/crypto/bf/bf_enc.c.html#363" target="_top" title="./../../.././qc/crypto/bf/bf_enc.c.html#363" xlink:actuate="onRequest" xlink:href="./../../.././qc/crypto/bf/bf_enc.c.html#363" xlink:show="new" xlink:title="./../../.././qc/crypto/bf/bf_enc.c.html#363" xlink:type="simple"><text fill="#000000" font-family="sans-serif" font-size="14" lengthAdjust="spacing" textLength="285" x="13" y="62.8857">BF_encrypt(unsignedint*;BF_KEY*) :  void</text></a><a href="./../../.././qc/crypto/bf/bf_enc.c.html#402" target="_top" title="./../../.././qc/crypto/bf/bf_enc.c.html#402" xlink:actuate="onRequest" xlink:href="./../../.././qc/crypto/bf/bf_enc.c.html#402" xlink:show="new" xlink:title="./../../.././qc/crypto/bf/bf_enc.c.html#402" xlink:type="simple"><text fill="#000000" font-family="sans-serif" font-size="14" lengthAdjust="spacing" textLength="285" x="13" y="79.1826">BF_decrypt(unsignedint*;BF_KEY*) :  void</text></a><a href="./../../.././qc/crypto/bf/bf_enc.c.html#441" target="_top" title="./../../.././qc/crypto/bf/bf_enc.c.html#441" xlink:actuate="onRequest" xlink:href="./../../.././qc/crypto/bf/bf_enc.c.html#441" xlink:show="new" xlink:title="./../../.././qc/crypto/bf/bf_enc.c.html#441" xlink:type="simple"><text fill="#000000" font-family="sans-serif" font-size="14" lengthAdjust="spacing" textLength="601" x="13" y="95.4795">BF_cbc_encrypt(unsignedchar*;unsignedchar*;long;BF_KEY*;unsignedchar*;int) :  void</text></a></g><!--MD5=[935858de1e68bd7650e29d4f0664983a]
@startuml
!pragma layout smetana
class dummy {
BF_encrypt(unsignedint*;BF_KEY*) :  void  [[[./../../.././qc/crypto/bf/bf_enc.c.html#363]]]
BF_decrypt(unsignedint*;BF_KEY*) :  void  [[[./../../.././qc/crypto/bf/bf_enc.c.html#402]]]
BF_cbc_encrypt(unsignedchar*;unsignedchar*;long;BF_KEY*;unsignedchar*;int) :  void  [[[./../../.././qc/crypto/bf/bf_enc.c.html#441]]]
} 
@enduml

PlantUML version 1.2022.7(Mon Aug 22 17:01:30 UTC 2022)
(GPL source distribution)
Java Runtime: OpenJDK Runtime Environment
JVM: OpenJDK 64-Bit Server VM
Default Encoding: UTF-8
Language: en
Country: null
--></g></svg>