<?xml version="1.0" encoding="UTF-8" standalone="no"?><svg xmlns="http://www.w3.org/2000/svg" xmlns:xlink="http://www.w3.org/1999/xlink" contentStyleType="text/css" height="93px" preserveAspectRatio="none" style="width:486px;height:93px;background:#FFFFFF;" version="1.1" viewBox="0 0 486 93" width="486px" zoomAndPan="magnify"><defs/><g><!--MD5=[28a33587cab88bd185cb6d3cb19015ac]
class dummy--><g id="elem_dummy"><rect codeLine="2" fill="#F1F1F1" height="80.5938" id="dummy" rx="2.5" ry="2.5" style="stroke:#181818;stroke-width:0.5;" width="472" x="7" y="5.5938"/><ellipse cx="213.25" cy="21.5938" fill="#ADD1B2" rx="11" ry="11" style="stroke:#181818;stroke-width:1.0;"/><path d="M216.2188,27.2344 Q215.6406,27.5313 215,27.6719 Q214.3594,27.8281 213.6563,27.8281 Q211.1563,27.8281 209.8281,26.1875 Q208.5156,24.5313 208.5156,21.4063 Q208.5156,18.2813 209.8281,16.625 Q211.1563,14.9688 213.6563,14.9688 Q214.3594,14.9688 215,15.125 Q215.6563,15.2813 216.2188,15.5781 L216.2188,18.2969 Q215.5938,17.7188 215,17.4531 Q214.4063,17.1719 213.7813,17.1719 Q212.4375,17.1719 211.75,18.25 Q211.0625,19.3125 211.0625,21.4063 Q211.0625,23.5 211.75,24.5781 Q212.4375,25.6406 213.7813,25.6406 Q214.4063,25.6406 215,25.375 Q215.5938,25.0938 216.2188,24.5156 L216.2188,27.2344 Z " fill="#000000"/><text fill="#000000" font-family="sans-serif" font-size="14" lengthAdjust="spacing" textLength="51" x="233.75" y="26.4404">dummy</text><line style="stroke:#181818;stroke-width:0.5;" x1="8" x2="478" y1="37.5938" y2="37.5938"/><line style="stroke:#181818;stroke-width:0.5;" x1="8" x2="478" y1="45.5938" y2="45.5938"/><a href="./../../.././qc/crypto/bf/bf_ecb.c.html#363" target="_top" title="./../../.././qc/crypto/bf/bf_ecb.c.html#363" xlink:actuate="onRequest" xlink:href="./../../.././qc/crypto/bf/bf_ecb.c.html#363" xlink:show="new" xlink:title="./../../.././qc/crypto/bf/bf_ecb.c.html#363" xlink:type="simple"><text fill="#000000" font-family="sans-serif" font-size="14" lengthAdjust="spacing" textLength="162" x="13" y="62.5889">BF_options(void) :  char</text></a><a href="./../../.././qc/crypto/bf/bf_ecb.c.html#368" target="_top" title="./../../.././qc/crypto/bf/bf_ecb.c.html#368" xlink:actuate="onRequest" xlink:href="./../../.././qc/crypto/bf/bf_ecb.c.html#368" xlink:show="new" xlink:title="./../../.././qc/crypto/bf/bf_ecb.c.html#368" xlink:type="simple"><text fill="#000000" font-family="sans-serif" font-size="14" lengthAdjust="spacing" textLength="460" x="13" y="78.8857">BF_ecb_encrypt(unsignedchar*;unsignedchar*;BF_KEY*;int) :  void</text></a></g><!--MD5=[9074bdf8a1b0254e58a9b3291b54afd6]
@startuml
!pragma layout smetana
class dummy {
BF_options(void) :  char  [[[./../../.././qc/crypto/bf/bf_ecb.c.html#363]]]
BF_ecb_encrypt(unsignedchar*;unsignedchar*;BF_KEY*;int) :  void  [[[./../../.././qc/crypto/bf/bf_ecb.c.html#368]]]
} 
@enduml

PlantUML version 1.2022.7(Mon Aug 22 17:01:30 UTC 2022)
(GPL source distribution)
Java Runtime: OpenJDK Runtime Environment
JVM: OpenJDK 64-Bit Server VM
Default Encoding: UTF-8
Language: en
Country: null
--></g></svg>