<svg xmlns="http://www.w3.org/2000/svg" xmlns:xlink="http://www.w3.org/1999/xlink" contentStyleType="text/css" data-diagram-type="CLASS" height="77px" preserveAspectRatio="none" style="width:662px;height:77px;background:#FFFFFF;" version="1.1" viewBox="0 0 662 77" width="662px" zoomAndPan="magnify"><?plantuml 1.2026.6?><defs/><g><!--class dummy--><g class="entity" data-qualified-name="dummy" data-source-line="2" id="ent0001"><rect fill="#F1F1F1" height="64.2969" rx="2.5" ry="2.5" style="stroke:#181818;stroke-width:0.5;" width="639.6416" x="6" y="12"/><ellipse cx="294.9106" cy="28" fill="#ADD1B2" rx="11" ry="11" style="stroke:#181818;stroke-width:1;"/><path d="M297.8794,33.6406 Q297.3013,33.9375 296.6606,34.0781 Q296.02,34.2344 295.3169,34.2344 Q292.8169,34.2344 291.4888,32.5938 Q290.1763,30.9375 290.1763,27.8125 Q290.1763,24.6875 291.4888,23.0313 Q292.8169,21.375 295.3169,21.375 Q296.02,21.375 296.6606,21.5313 Q297.3169,21.6875 297.8794,21.9844 L297.8794,24.7031 Q297.2544,24.125 296.6606,23.8594 Q296.0669,23.5781 295.4419,23.5781 Q294.0981,23.5781 293.4106,24.6563 Q292.7231,25.7188 292.7231,27.8125 Q292.7231,29.9063 293.4106,30.9844 Q294.0981,32.0469 295.4419,32.0469 Q296.0669,32.0469 296.6606,31.7813 Q297.2544,31.5 297.8794,30.9219 L297.8794,33.6406 Z " fill="#000000"/><text fill="#000000" font-family="sans-serif" font-size="14" lengthAdjust="spacing" textLength="53.3203" x="315.4106" y="32.8467">dummy</text><line style="stroke:#181818;stroke-width:0.5;" x1="7" x2="644.6416" y1="44" y2="44"/><line style="stroke:#181818;stroke-width:0.5;" x1="7" x2="644.6416" y1="52" y2="52"/><a href="./../../.././qc/crypto/bf/bf_ofb64.c.html#369" target="_top" title="./../../.././qc/crypto/bf/bf_ofb64.c.html#369" xlink:actuate="onRequest" xlink:href="./../../.././qc/crypto/bf/bf_ofb64.c.html#369" xlink:show="new" xlink:title="./../../.././qc/crypto/bf/bf_ofb64.c.html#369" xlink:type="simple"><text fill="#000000" font-family="sans-serif" font-size="14" lengthAdjust="spacing" textLength="627.6416" x="12" y="68.9951">BF_ofb64_encrypt(unsignedchar*;unsignedchar*;long;BF_KEY*;unsignedchar*;int*) :  void</text></a></g><?plantuml-src KomeIapFJLJ8IQpCBorHACvDBKdCI-HApaaiBbP8AStDhLIevd9oYyzFIp8pYK_DIowgB2ZHACqhpapFIqr9paWiqh96vUNavwLR0tLukqQYIsNcbMXfAbWfA9JbPwOeA4H7H-lfwy6HVc6oFjZuVFsaD222sAcNh9THafkZR6nc6HiRorMh0000?></g></svg>