<?xml version="1.0" encoding="UTF-8" standalone="no"?><svg xmlns="http://www.w3.org/2000/svg" xmlns:xlink="http://www.w3.org/1999/xlink" contentStyleType="text/css" height="77px" preserveAspectRatio="none" style="width:454px;height:77px;background:#FFFFFF;" version="1.1" viewBox="0 0 454 77" width="454px" zoomAndPan="magnify"><defs/><g><!--MD5=[28a33587cab88bd185cb6d3cb19015ac]
class dummy--><g id="elem_dummy"><rect codeLine="2" fill="#F1F1F1" height="64.2969" id="dummy" rx="2.5" ry="2.5" style="stroke:#181818;stroke-width:0.5;" width="440" x="7" y="6.2969"/><ellipse cx="197.25" cy="22.2969" fill="#ADD1B2" rx="11" ry="11" style="stroke:#181818;stroke-width:1.0;"/><path d="M200.2188,27.9375 Q199.6406,28.2344 199,28.375 Q198.3594,28.5313 197.6563,28.5313 Q195.1563,28.5313 193.8281,26.8906 Q192.5156,25.2344 192.5156,22.1094 Q192.5156,18.9844 193.8281,17.3281 Q195.1563,15.6719 197.6563,15.6719 Q198.3594,15.6719 199,15.8281 Q199.6563,15.9844 200.2188,16.2813 L200.2188,19 Q199.5938,18.4219 199,18.1563 Q198.4063,17.875 197.7813,17.875 Q196.4375,17.875 195.75,18.9531 Q195.0625,20.0156 195.0625,22.1094 Q195.0625,24.2031 195.75,25.2813 Q196.4375,26.3438 197.7813,26.3438 Q198.4063,26.3438 199,26.0781 Q199.5938,25.7969 200.2188,25.2188 L200.2188,27.9375 Z " fill="#000000"/><text fill="#000000" font-family="sans-serif" font-size="14" lengthAdjust="spacing" textLength="51" x="217.75" y="27.1436">dummy</text><line style="stroke:#181818;stroke-width:0.5;" x1="8" x2="446" y1="38.2969" y2="38.2969"/><line style="stroke:#181818;stroke-width:0.5;" x1="8" x2="446" y1="46.2969" y2="46.2969"/><a href="./../../.././qc/crypto/bf/bf_ofb64.c.html#369" target="_top" title="./../../.././qc/crypto/bf/bf_ofb64.c.html#369" xlink:actuate="onRequest" xlink:href="./../../.././qc/crypto/bf/bf_ofb64.c.html#369" xlink:show="new" xlink:title="./../../.././qc/crypto/bf/bf_ofb64.c.html#369" xlink:type="simple"><text fill="#000000" font-family="sans-serif" font-size="14" lengthAdjust="spacing" textLength="428" x="13" y="63.292">BF_ofb64_encrypt(char*;char*;long;BF_KEY*;char*;int*) :  void</text></a></g><!--MD5=[a8992ca71c65b318e60daf898ceca01e]
@startuml
!pragma layout smetana
class dummy {
BF_ofb64_encrypt(char*;char*;long;BF_KEY*;char*;int*) :  void  [[[./../../.././qc/crypto/bf/bf_ofb64.c.html#369]]]
} 
@enduml

PlantUML version 1.2022.7(Mon Aug 22 17:01:30 UTC 2022)
(GPL source distribution)
Java Runtime: OpenJDK Runtime Environment
JVM: OpenJDK 64-Bit Server VM
Default Encoding: UTF-8
Language: en
Country: null
--></g></svg>