<?xml version="1.0" encoding="UTF-8" standalone="no"?><svg xmlns="http://www.w3.org/2000/svg" xmlns:xlink="http://www.w3.org/1999/xlink" contentStyleType="text/css" height="77px" preserveAspectRatio="none" style="width:513px;height:77px;background:#FFFFFF;" version="1.1" viewBox="0 0 513 77" width="513px" zoomAndPan="magnify"><defs/><g><!--MD5=[28a33587cab88bd185cb6d3cb19015ac]
class dummy--><g id="elem_dummy"><rect codeLine="2" fill="#F1F1F1" height="64.2969" id="dummy" rx="2.5" ry="2.5" style="stroke:#181818;stroke-width:0.5;" width="499" x="7" y="6.2969"/><ellipse cx="226.75" cy="22.2969" fill="#ADD1B2" rx="11" ry="11" style="stroke:#181818;stroke-width:1.0;"/><path d="M229.7188,27.9375 Q229.1406,28.2344 228.5,28.375 Q227.8594,28.5313 227.1563,28.5313 Q224.6563,28.5313 223.3281,26.8906 Q222.0156,25.2344 222.0156,22.1094 Q222.0156,18.9844 223.3281,17.3281 Q224.6563,15.6719 227.1563,15.6719 Q227.8594,15.6719 228.5,15.8281 Q229.1563,15.9844 229.7188,16.2813 L229.7188,19 Q229.0938,18.4219 228.5,18.1563 Q227.9063,17.875 227.2813,17.875 Q225.9375,17.875 225.25,18.9531 Q224.5625,20.0156 224.5625,22.1094 Q224.5625,24.2031 225.25,25.2813 Q225.9375,26.3438 227.2813,26.3438 Q227.9063,26.3438 228.5,26.0781 Q229.0938,25.7969 229.7188,25.2188 L229.7188,27.9375 Z " fill="#000000"/><text fill="#000000" font-family="sans-serif" font-size="14" lengthAdjust="spacing" textLength="51" x="247.25" y="27.1436">dummy</text><line style="stroke:#181818;stroke-width:0.5;" x1="8" x2="505" y1="38.2969" y2="38.2969"/><line style="stroke:#181818;stroke-width:0.5;" x1="8" x2="505" y1="46.2969" y2="46.2969"/><a href="./../../.././qc/crypto/cast/c_cfb64.c.html#86" target="_top" title="./../../.././qc/crypto/cast/c_cfb64.c.html#86" xlink:actuate="onRequest" xlink:href="./../../.././qc/crypto/cast/c_cfb64.c.html#86" xlink:show="new" xlink:title="./../../.././qc/crypto/cast/c_cfb64.c.html#86" xlink:type="simple"><text fill="#000000" font-family="sans-serif" font-size="14" lengthAdjust="spacing" textLength="487" x="13" y="63.292">CAST_cfb64_encrypt(char*;char*;long;CAST_KEY*;char*;int*;int) :  void</text></a></g><!--MD5=[9665b3a09d0709b43e823824b3ed260a]
@startuml
!pragma layout smetana
class dummy {
CAST_cfb64_encrypt(char*;char*;long;CAST_KEY*;char*;int*;int) :  void  [[[./../../.././qc/crypto/cast/c_cfb64.c.html#86]]]
} 
@enduml

PlantUML version 1.2022.7(Mon Aug 22 17:01:30 UTC 2022)
(GPL source distribution)
Java Runtime: OpenJDK Runtime Environment
JVM: OpenJDK 64-Bit Server VM
Default Encoding: UTF-8
Language: en
Country: null
--></g></svg>