<svg xmlns="http://www.w3.org/2000/svg" xmlns:xlink="http://www.w3.org/1999/xlink" contentStyleType="text/css" data-diagram-type="CLASS" height="77px" preserveAspectRatio="none" style="width:722px;height:77px;background:#FFFFFF;" version="1.1" viewBox="0 0 722 77" width="722px" zoomAndPan="magnify"><?plantuml 1.2026.6?><defs/><g><!--class dummy--><g class="entity" data-qualified-name="dummy" data-source-line="2" id="ent0001"><rect fill="#F1F1F1" height="64.2969" rx="2.5" ry="2.5" style="stroke:#181818;stroke-width:0.5;" width="700.0098" x="6" y="12"/><ellipse cx="325.0947" cy="28" fill="#ADD1B2" rx="11" ry="11" style="stroke:#181818;stroke-width:1;"/><path d="M328.0635,33.6406 Q327.4854,33.9375 326.8447,34.0781 Q326.2041,34.2344 325.501,34.2344 Q323.001,34.2344 321.6729,32.5938 Q320.3604,30.9375 320.3604,27.8125 Q320.3604,24.6875 321.6729,23.0313 Q323.001,21.375 325.501,21.375 Q326.2041,21.375 326.8447,21.5313 Q327.501,21.6875 328.0635,21.9844 L328.0635,24.7031 Q327.4385,24.125 326.8447,23.8594 Q326.251,23.5781 325.626,23.5781 Q324.2822,23.5781 323.5947,24.6563 Q322.9072,25.7188 322.9072,27.8125 Q322.9072,29.9063 323.5947,30.9844 Q324.2822,32.0469 325.626,32.0469 Q326.251,32.0469 326.8447,31.7813 Q327.4385,31.5 328.0635,30.9219 L328.0635,33.6406 Z " fill="#000000"/><text fill="#000000" font-family="sans-serif" font-size="14" lengthAdjust="spacing" textLength="53.3203" x="345.5947" y="32.8467">dummy</text><line style="stroke:#181818;stroke-width:0.5;" x1="7" x2="705.0098" y1="44" y2="44"/><line style="stroke:#181818;stroke-width:0.5;" x1="7" x2="705.0098" y1="52" y2="52"/><a href="./../../.././qc/crypto/cast/c_cfb64.c.html#86" target="_top" title="./../../.././qc/crypto/cast/c_cfb64.c.html#86" xlink:actuate="onRequest" xlink:href="./../../.././qc/crypto/cast/c_cfb64.c.html#86" xlink:show="new" xlink:title="./../../.././qc/crypto/cast/c_cfb64.c.html#86" xlink:type="simple"><text fill="#000000" font-family="sans-serif" font-size="14" lengthAdjust="spacing" textLength="688.0098" x="12" y="68.9951">CAST_cfb64_encrypt(unsignedchar*;unsignedchar*;long;CAST_KEY*;unsignedchar*;int*;int) :  void</text></a></g><?plantuml-src KomeIapFJLJ8IQpCBorHACvDBKdCI-HApaaiBbP8AStDhLIevd9s30w9JqvBCZE9JyrBBgeiAD4epIlEJCzBJKdEI2pIiaRbvUJdfLk3zNYxHg9BPkQLW0bD1Ii5XRByp1G5XUZeQ3rzFJZIBqpM1rkIhv-SM5oYdmonMYzPBwCaDqVPmYmsDfQhLW40?></g></svg>