<?xml version="1.0" encoding="UTF-8" standalone="no"?><svg xmlns="http://www.w3.org/2000/svg" xmlns:xlink="http://www.w3.org/1999/xlink" contentStyleType="text/css" height="77px" preserveAspectRatio="none" style="width:524px;height:77px;background:#FFFFFF;" version="1.1" viewBox="0 0 524 77" width="524px" zoomAndPan="magnify"><defs/><g><!--MD5=[28a33587cab88bd185cb6d3cb19015ac]
class dummy--><g id="elem_dummy"><rect codeLine="2" fill="#F1F1F1" height="64.2969" id="dummy" rx="2.5" ry="2.5" style="stroke:#181818;stroke-width:0.5;" width="510" x="7" y="6.2969"/><ellipse cx="232.25" cy="22.2969" fill="#ADD1B2" rx="11" ry="11" style="stroke:#181818;stroke-width:1.0;"/><path d="M235.2188,27.9375 Q234.6406,28.2344 234,28.375 Q233.3594,28.5313 232.6563,28.5313 Q230.1563,28.5313 228.8281,26.8906 Q227.5156,25.2344 227.5156,22.1094 Q227.5156,18.9844 228.8281,17.3281 Q230.1563,15.6719 232.6563,15.6719 Q233.3594,15.6719 234,15.8281 Q234.6563,15.9844 235.2188,16.2813 L235.2188,19 Q234.5938,18.4219 234,18.1563 Q233.4063,17.875 232.7813,17.875 Q231.4375,17.875 230.75,18.9531 Q230.0625,20.0156 230.0625,22.1094 Q230.0625,24.2031 230.75,25.2813 Q231.4375,26.3438 232.7813,26.3438 Q233.4063,26.3438 234,26.0781 Q234.5938,25.7969 235.2188,25.2188 L235.2188,27.9375 Z " fill="#000000"/><text fill="#000000" font-family="sans-serif" font-size="14" lengthAdjust="spacing" textLength="51" x="252.75" y="27.1436">dummy</text><line style="stroke:#181818;stroke-width:0.5;" x1="8" x2="516" y1="38.2969" y2="38.2969"/><line style="stroke:#181818;stroke-width:0.5;" x1="8" x2="516" y1="46.2969" y2="46.2969"/><a href="./../../.././qc/crypto/cast/c_ecb.c.html#81" target="_top" title="./../../.././qc/crypto/cast/c_ecb.c.html#81" xlink:actuate="onRequest" xlink:href="./../../.././qc/crypto/cast/c_ecb.c.html#81" xlink:show="new" xlink:title="./../../.././qc/crypto/cast/c_ecb.c.html#81" xlink:type="simple"><text fill="#000000" font-family="sans-serif" font-size="14" lengthAdjust="spacing" textLength="498" x="13" y="63.292">CAST_ecb_encrypt(unsignedchar*;unsignedchar*;CAST_KEY*;int) :  void</text></a></g><!--MD5=[594b534b5141dcb585a803bd7f200473]
@startuml
!pragma layout smetana
class dummy {
CAST_ecb_encrypt(unsignedchar*;unsignedchar*;CAST_KEY*;int) :  void  [[[./../../.././qc/crypto/cast/c_ecb.c.html#81]]]
} 
@enduml

PlantUML version 1.2022.7(Mon Aug 22 17:01:30 UTC 2022)
(GPL source distribution)
Java Runtime: OpenJDK Runtime Environment
JVM: OpenJDK 64-Bit Server VM
Default Encoding: UTF-8
Language: en
Country: null
--></g></svg>