<svg xmlns="http://www.w3.org/2000/svg" xmlns:xlink="http://www.w3.org/1999/xlink" contentStyleType="text/css" data-diagram-type="CLASS" height="77px" preserveAspectRatio="none" style="width:536px;height:77px;background:#FFFFFF;" version="1.1" viewBox="0 0 536 77" width="536px" zoomAndPan="magnify"><?plantuml 1.2026.6?><defs/><g><!--class dummy--><g class="entity" data-qualified-name="dummy" data-source-line="2" id="ent0001"><rect fill="#F1F1F1" height="64.2969" rx="2.5" ry="2.5" style="stroke:#181818;stroke-width:0.5;" width="514.168" x="6" y="12"/><ellipse cx="232.1738" cy="28" fill="#ADD1B2" rx="11" ry="11" style="stroke:#181818;stroke-width:1;"/><path d="M235.1426,33.6406 Q234.5645,33.9375 233.9238,34.0781 Q233.2832,34.2344 232.5801,34.2344 Q230.0801,34.2344 228.752,32.5938 Q227.4395,30.9375 227.4395,27.8125 Q227.4395,24.6875 228.752,23.0313 Q230.0801,21.375 232.5801,21.375 Q233.2832,21.375 233.9238,21.5313 Q234.5801,21.6875 235.1426,21.9844 L235.1426,24.7031 Q234.5176,24.125 233.9238,23.8594 Q233.3301,23.5781 232.7051,23.5781 Q231.3613,23.5781 230.6738,24.6563 Q229.9863,25.7188 229.9863,27.8125 Q229.9863,29.9063 230.6738,30.9844 Q231.3613,32.0469 232.7051,32.0469 Q233.3301,32.0469 233.9238,31.7813 Q234.5176,31.5 235.1426,30.9219 L235.1426,33.6406 Z " fill="#000000"/><text fill="#000000" font-family="sans-serif" font-size="14" lengthAdjust="spacing" textLength="53.3203" x="252.6738" y="32.8467">dummy</text><line style="stroke:#181818;stroke-width:0.5;" x1="7" x2="519.168" y1="44" y2="44"/><line style="stroke:#181818;stroke-width:0.5;" x1="7" x2="519.168" y1="52" y2="52"/><a href="./../../.././qc/crypto/cast/c_ecb.c.html#81" target="_top" title="./../../.././qc/crypto/cast/c_ecb.c.html#81" xlink:actuate="onRequest" xlink:href="./../../.././qc/crypto/cast/c_ecb.c.html#81" xlink:show="new" xlink:title="./../../.././qc/crypto/cast/c_ecb.c.html#81" xlink:type="simple"><text fill="#000000" font-family="sans-serif" font-size="14" lengthAdjust="spacing" textLength="502.168" x="12" y="68.9951">CAST_ecb_encrypt(unsignedchar*;unsignedchar*;CAST_KEY*;int) :  void</text></a></g><?plantuml-src KomeIapFJLJ8IQpCBorHACvDBKdCI-HApaaiBbP8AStDhLIevd9s30w9JqrEYa_DIowgB2ZHACqhpapFIqr9paWiqh96vO4LUxj6QbbdvfLeAbWfA9JbPwOeA4H7H-lfwy6HVc6oFjYmVFtanE8I_MIG1Nh9UXabkJdA5eQniR5SjGe0?></g></svg>