<?xml version="1.0" encoding="UTF-8" standalone="no"?><svg xmlns="http://www.w3.org/2000/svg" xmlns:xlink="http://www.w3.org/1999/xlink" contentStyleType="text/css" height="109px" preserveAspectRatio="none" style="width:665px;height:109px;background:#FFFFFF;" version="1.1" viewBox="0 0 665 109" width="665px" zoomAndPan="magnify"><defs/><g><!--MD5=[28a33587cab88bd185cb6d3cb19015ac]
class dummy--><g id="elem_dummy"><rect codeLine="2" fill="#F1F1F1" height="96.8906" id="dummy" rx="2.5" ry="2.5" style="stroke:#181818;stroke-width:0.5;" width="651" x="7" y="5.8906"/><ellipse cx="302.75" cy="21.8906" fill="#ADD1B2" rx="11" ry="11" style="stroke:#181818;stroke-width:1.0;"/><path d="M305.7188,27.5313 Q305.1406,27.8281 304.5,27.9688 Q303.8594,28.125 303.1563,28.125 Q300.6563,28.125 299.3281,26.4844 Q298.0156,24.8281 298.0156,21.7031 Q298.0156,18.5781 299.3281,16.9219 Q300.6563,15.2656 303.1563,15.2656 Q303.8594,15.2656 304.5,15.4219 Q305.1563,15.5781 305.7188,15.875 L305.7188,18.5938 Q305.0938,18.0156 304.5,17.75 Q303.9063,17.4688 303.2813,17.4688 Q301.9375,17.4688 301.25,18.5469 Q300.5625,19.6094 300.5625,21.7031 Q300.5625,23.7969 301.25,24.875 Q301.9375,25.9375 303.2813,25.9375 Q303.9063,25.9375 304.5,25.6719 Q305.0938,25.3906 305.7188,24.8125 L305.7188,27.5313 Z " fill="#000000"/><text fill="#000000" font-family="sans-serif" font-size="14" lengthAdjust="spacing" textLength="51" x="323.25" y="26.7373">dummy</text><line style="stroke:#181818;stroke-width:0.5;" x1="8" x2="657" y1="37.8906" y2="37.8906"/><line style="stroke:#181818;stroke-width:0.5;" x1="8" x2="657" y1="45.8906" y2="45.8906"/><a href="./../../.././qc/crypto/cast/c_enc.c.html#80" target="_top" title="./../../.././qc/crypto/cast/c_enc.c.html#80" xlink:actuate="onRequest" xlink:href="./../../.././qc/crypto/cast/c_enc.c.html#80" xlink:show="new" xlink:title="./../../.././qc/crypto/cast/c_enc.c.html#80" xlink:type="simple"><text fill="#000000" font-family="sans-serif" font-size="14" lengthAdjust="spacing" textLength="323" x="13" y="62.8857">CAST_encrypt(unsignedint*;CAST_KEY*) :  void</text></a><a href="./../../.././qc/crypto/cast/c_enc.c.html#112" target="_top" title="./../../.././qc/crypto/cast/c_enc.c.html#112" xlink:actuate="onRequest" xlink:href="./../../.././qc/crypto/cast/c_enc.c.html#112" xlink:show="new" xlink:title="./../../.././qc/crypto/cast/c_enc.c.html#112" xlink:type="simple"><text fill="#000000" font-family="sans-serif" font-size="14" lengthAdjust="spacing" textLength="323" x="13" y="79.1826">CAST_decrypt(unsignedint*;CAST_KEY*) :  void</text></a><a href="./../../.././qc/crypto/cast/c_enc.c.html#144" target="_top" title="./../../.././qc/crypto/cast/c_enc.c.html#144" xlink:actuate="onRequest" xlink:href="./../../.././qc/crypto/cast/c_enc.c.html#144" xlink:show="new" xlink:title="./../../.././qc/crypto/cast/c_enc.c.html#144" xlink:type="simple"><text fill="#000000" font-family="sans-serif" font-size="14" lengthAdjust="spacing" textLength="639" x="13" y="95.4795">CAST_cbc_encrypt(unsignedchar*;unsignedchar*;long;CAST_KEY*;unsignedchar*;int) :  void</text></a></g><!--MD5=[9ffdea9d014e18790e03173881ade43f]
@startuml
!pragma layout smetana
class dummy {
CAST_encrypt(unsignedint*;CAST_KEY*) :  void  [[[./../../.././qc/crypto/cast/c_enc.c.html#80]]]
CAST_decrypt(unsignedint*;CAST_KEY*) :  void  [[[./../../.././qc/crypto/cast/c_enc.c.html#112]]]
CAST_cbc_encrypt(unsignedchar*;unsignedchar*;long;CAST_KEY*;unsignedchar*;int) :  void  [[[./../../.././qc/crypto/cast/c_enc.c.html#144]]]
} 
@enduml

PlantUML version 1.2022.7(Mon Aug 22 17:01:30 UTC 2022)
(GPL source distribution)
Java Runtime: OpenJDK Runtime Environment
JVM: OpenJDK 64-Bit Server VM
Default Encoding: UTF-8
Language: en
Country: null
--></g></svg>