<?xml version="1.0" encoding="UTF-8" standalone="no"?><svg xmlns="http://www.w3.org/2000/svg" xmlns:xlink="http://www.w3.org/1999/xlink" contentStyleType="text/css" height="109px" preserveAspectRatio="none" style="width:470px;height:109px;background:#FFFFFF;" version="1.1" viewBox="0 0 470 109" width="470px" zoomAndPan="magnify"><defs/><g><!--MD5=[28a33587cab88bd185cb6d3cb19015ac]
class dummy--><g id="elem_dummy"><rect codeLine="2" fill="#F1F1F1" height="96.8906" id="dummy" rx="2.5" ry="2.5" style="stroke:#181818;stroke-width:0.5;" width="456" x="7" y="5.8906"/><ellipse cx="205.25" cy="21.8906" fill="#ADD1B2" rx="11" ry="11" style="stroke:#181818;stroke-width:1.0;"/><path d="M208.2188,27.5313 Q207.6406,27.8281 207,27.9688 Q206.3594,28.125 205.6563,28.125 Q203.1563,28.125 201.8281,26.4844 Q200.5156,24.8281 200.5156,21.7031 Q200.5156,18.5781 201.8281,16.9219 Q203.1563,15.2656 205.6563,15.2656 Q206.3594,15.2656 207,15.4219 Q207.6563,15.5781 208.2188,15.875 L208.2188,18.5938 Q207.5938,18.0156 207,17.75 Q206.4063,17.4688 205.7813,17.4688 Q204.4375,17.4688 203.75,18.5469 Q203.0625,19.6094 203.0625,21.7031 Q203.0625,23.7969 203.75,24.875 Q204.4375,25.9375 205.7813,25.9375 Q206.4063,25.9375 207,25.6719 Q207.5938,25.3906 208.2188,24.8125 L208.2188,27.5313 Z " fill="#000000"/><text fill="#000000" font-family="sans-serif" font-size="14" lengthAdjust="spacing" textLength="51" x="225.75" y="26.7373">dummy</text><line style="stroke:#181818;stroke-width:0.5;" x1="8" x2="462" y1="37.8906" y2="37.8906"/><line style="stroke:#181818;stroke-width:0.5;" x1="8" x2="462" y1="45.8906" y2="45.8906"/><a href="./../../.././qc/crypto/cast/c_enc.c.html#80" target="_top" title="./../../.././qc/crypto/cast/c_enc.c.html#80" xlink:actuate="onRequest" xlink:href="./../../.././qc/crypto/cast/c_enc.c.html#80" xlink:show="new" xlink:title="./../../.././qc/crypto/cast/c_enc.c.html#80" xlink:type="simple"><text fill="#000000" font-family="sans-serif" font-size="14" lengthAdjust="spacing" textLength="258" x="13" y="62.8857">CAST_encrypt(int*;CAST_KEY*) :  void</text></a><a href="./../../.././qc/crypto/cast/c_enc.c.html#112" target="_top" title="./../../.././qc/crypto/cast/c_enc.c.html#112" xlink:actuate="onRequest" xlink:href="./../../.././qc/crypto/cast/c_enc.c.html#112" xlink:show="new" xlink:title="./../../.././qc/crypto/cast/c_enc.c.html#112" xlink:type="simple"><text fill="#000000" font-family="sans-serif" font-size="14" lengthAdjust="spacing" textLength="258" x="13" y="79.1826">CAST_decrypt(int*;CAST_KEY*) :  void</text></a><a href="./../../.././qc/crypto/cast/c_enc.c.html#144" target="_top" title="./../../.././qc/crypto/cast/c_enc.c.html#144" xlink:actuate="onRequest" xlink:href="./../../.././qc/crypto/cast/c_enc.c.html#144" xlink:show="new" xlink:title="./../../.././qc/crypto/cast/c_enc.c.html#144" xlink:type="simple"><text fill="#000000" font-family="sans-serif" font-size="14" lengthAdjust="spacing" textLength="444" x="13" y="95.4795">CAST_cbc_encrypt(char*;char*;long;CAST_KEY*;char*;int) :  void</text></a></g><!--MD5=[66c235f7f2ca7b573297442cbea9c558]
@startuml
!pragma layout smetana
class dummy {
CAST_encrypt(int*;CAST_KEY*) :  void  [[[./../../.././qc/crypto/cast/c_enc.c.html#80]]]
CAST_decrypt(int*;CAST_KEY*) :  void  [[[./../../.././qc/crypto/cast/c_enc.c.html#112]]]
CAST_cbc_encrypt(char*;char*;long;CAST_KEY*;char*;int) :  void  [[[./../../.././qc/crypto/cast/c_enc.c.html#144]]]
} 
@enduml

PlantUML version 1.2022.7(Mon Aug 22 17:01:30 UTC 2022)
(GPL source distribution)
Java Runtime: OpenJDK Runtime Environment
JVM: OpenJDK 64-Bit Server VM
Default Encoding: UTF-8
Language: en
Country: null
--></g></svg>