<svg xmlns="http://www.w3.org/2000/svg" xmlns:xlink="http://www.w3.org/1999/xlink" contentStyleType="text/css" data-diagram-type="CLASS" height="77px" preserveAspectRatio="none" style="width:700px;height:77px;background:#FFFFFF;" version="1.1" viewBox="0 0 700 77" width="700px" zoomAndPan="magnify"><?plantuml 1.2026.6?><defs/><g><!--class dummy--><g class="entity" data-qualified-name="dummy" data-source-line="2" id="ent0001"><rect fill="#F1F1F1" height="64.2969" rx="2.5" ry="2.5" style="stroke:#181818;stroke-width:0.5;" width="677.9092" x="6" y="12"/><ellipse cx="314.0444" cy="28" fill="#ADD1B2" rx="11" ry="11" style="stroke:#181818;stroke-width:1;"/><path d="M317.0132,33.6406 Q316.4351,33.9375 315.7944,34.0781 Q315.1538,34.2344 314.4507,34.2344 Q311.9507,34.2344 310.6226,32.5938 Q309.3101,30.9375 309.3101,27.8125 Q309.3101,24.6875 310.6226,23.0313 Q311.9507,21.375 314.4507,21.375 Q315.1538,21.375 315.7944,21.5313 Q316.4507,21.6875 317.0132,21.9844 L317.0132,24.7031 Q316.3882,24.125 315.7944,23.8594 Q315.2007,23.5781 314.5757,23.5781 Q313.2319,23.5781 312.5444,24.6563 Q311.8569,25.7188 311.8569,27.8125 Q311.8569,29.9063 312.5444,30.9844 Q313.2319,32.0469 314.5757,32.0469 Q315.2007,32.0469 315.7944,31.7813 Q316.3882,31.5 317.0132,30.9219 L317.0132,33.6406 Z " fill="#000000"/><text fill="#000000" font-family="sans-serif" font-size="14" lengthAdjust="spacing" textLength="53.3203" x="334.5444" y="32.8467">dummy</text><line style="stroke:#181818;stroke-width:0.5;" x1="7" x2="682.9092" y1="44" y2="44"/><line style="stroke:#181818;stroke-width:0.5;" x1="7" x2="682.9092" y1="52" y2="52"/><a href="./../../.././qc/crypto/cast/c_ofb64.c.html#85" target="_top" title="./../../.././qc/crypto/cast/c_ofb64.c.html#85" xlink:actuate="onRequest" xlink:href="./../../.././qc/crypto/cast/c_ofb64.c.html#85" xlink:show="new" xlink:title="./../../.././qc/crypto/cast/c_ofb64.c.html#85" xlink:type="simple"><text fill="#000000" font-family="sans-serif" font-size="14" lengthAdjust="spacing" textLength="665.9092" x="12" y="68.9951">CAST_ofb64_encrypt(unsignedchar*;unsignedchar*;long;CAST_KEY*;unsignedchar*;int*) :  void</text></a></g><?plantuml-src KomeIapFJLJ8IQpCBorHACvDBKdCI-HApaaiBbP8AStDhLIevd9s30w9pqzBCZE9JyrBBgeiAD4epIlEJCzBJKdEI2pIiaRbvUJdfLk3zNYxHg9BPkQLQ6agM2aebELdfYWeH4T7w-dhmP5-OR8-s89y_UJ4uXBzP8YrUibw6IMvESeMfh6niLor2W00?></g></svg>