<?xml version="1.0" encoding="UTF-8" standalone="no"?><svg xmlns="http://www.w3.org/2000/svg" xmlns:xlink="http://www.w3.org/1999/xlink" contentStyleType="text/css" height="77px" preserveAspectRatio="none" style="width:687px;height:77px;background:#FFFFFF;" version="1.1" viewBox="0 0 687 77" width="687px" zoomAndPan="magnify"><defs/><g><!--MD5=[28a33587cab88bd185cb6d3cb19015ac]
class dummy--><g id="elem_dummy"><rect codeLine="2" fill="#F1F1F1" height="64.2969" id="dummy" rx="2.5" ry="2.5" style="stroke:#181818;stroke-width:0.5;" width="673" x="7" y="6.2969"/><ellipse cx="313.75" cy="22.2969" fill="#ADD1B2" rx="11" ry="11" style="stroke:#181818;stroke-width:1.0;"/><path d="M316.7188,27.9375 Q316.1406,28.2344 315.5,28.375 Q314.8594,28.5313 314.1563,28.5313 Q311.6563,28.5313 310.3281,26.8906 Q309.0156,25.2344 309.0156,22.1094 Q309.0156,18.9844 310.3281,17.3281 Q311.6563,15.6719 314.1563,15.6719 Q314.8594,15.6719 315.5,15.8281 Q316.1563,15.9844 316.7188,16.2813 L316.7188,19 Q316.0938,18.4219 315.5,18.1563 Q314.9063,17.875 314.2813,17.875 Q312.9375,17.875 312.25,18.9531 Q311.5625,20.0156 311.5625,22.1094 Q311.5625,24.2031 312.25,25.2813 Q312.9375,26.3438 314.2813,26.3438 Q314.9063,26.3438 315.5,26.0781 Q316.0938,25.7969 316.7188,25.2188 L316.7188,27.9375 Z " fill="#000000"/><text fill="#000000" font-family="sans-serif" font-size="14" lengthAdjust="spacing" textLength="51" x="334.25" y="27.1436">dummy</text><line style="stroke:#181818;stroke-width:0.5;" x1="8" x2="679" y1="38.2969" y2="38.2969"/><line style="stroke:#181818;stroke-width:0.5;" x1="8" x2="679" y1="46.2969" y2="46.2969"/><a href="./../../.././qc/crypto/cast/c_ofb64.c.html#85" target="_top" title="./../../.././qc/crypto/cast/c_ofb64.c.html#85" xlink:actuate="onRequest" xlink:href="./../../.././qc/crypto/cast/c_ofb64.c.html#85" xlink:show="new" xlink:title="./../../.././qc/crypto/cast/c_ofb64.c.html#85" xlink:type="simple"><text fill="#000000" font-family="sans-serif" font-size="14" lengthAdjust="spacing" textLength="661" x="13" y="63.292">CAST_ofb64_encrypt(unsignedchar*;unsignedchar*;long;CAST_KEY*;unsignedchar*;int*) :  void</text></a></g><!--MD5=[f10b5200bb401720e606935e9cb40ac4]
@startuml
!pragma layout smetana
class dummy {
CAST_ofb64_encrypt(unsignedchar*;unsignedchar*;long;CAST_KEY*;unsignedchar*;int*) :  void  [[[./../../.././qc/crypto/cast/c_ofb64.c.html#85]]]
} 
@enduml

PlantUML version 1.2022.7(Mon Aug 22 17:01:30 UTC 2022)
(GPL source distribution)
Java Runtime: OpenJDK Runtime Environment
JVM: OpenJDK 64-Bit Server VM
Default Encoding: UTF-8
Language: en
Country: null
--></g></svg>