<svg xmlns="http://www.w3.org/2000/svg" xmlns:xlink="http://www.w3.org/1999/xlink" contentStyleType="text/css" data-diagram-type="CLASS" height="77px" preserveAspectRatio="none" style="width:397px;height:77px;background:#FFFFFF;" version="1.1" viewBox="0 0 397 77" width="397px" zoomAndPan="magnify"><?plantuml 1.2026.6?><defs/><g><!--class dummy--><g class="entity" data-qualified-name="dummy" data-source-line="2" id="ent0001"><rect fill="#F1F1F1" height="64.2969" rx="2.5" ry="2.5" style="stroke:#181818;stroke-width:0.5;" width="374.9609" x="6" y="12"/><ellipse cx="162.5703" cy="28" fill="#ADD1B2" rx="11" ry="11" style="stroke:#181818;stroke-width:1;"/><path d="M165.5391,33.6406 Q164.9609,33.9375 164.3203,34.0781 Q163.6797,34.2344 162.9766,34.2344 Q160.4766,34.2344 159.1484,32.5938 Q157.8359,30.9375 157.8359,27.8125 Q157.8359,24.6875 159.1484,23.0313 Q160.4766,21.375 162.9766,21.375 Q163.6797,21.375 164.3203,21.5313 Q164.9766,21.6875 165.5391,21.9844 L165.5391,24.7031 Q164.9141,24.125 164.3203,23.8594 Q163.7266,23.5781 163.1016,23.5781 Q161.7578,23.5781 161.0703,24.6563 Q160.3828,25.7188 160.3828,27.8125 Q160.3828,29.9063 161.0703,30.9844 Q161.7578,32.0469 163.1016,32.0469 Q163.7266,32.0469 164.3203,31.7813 Q164.9141,31.5 165.5391,30.9219 L165.5391,33.6406 Z " fill="#000000"/><text fill="#000000" font-family="sans-serif" font-size="14" lengthAdjust="spacing" textLength="53.3203" x="183.0703" y="32.8467">dummy</text><line style="stroke:#181818;stroke-width:0.5;" x1="7" x2="379.9609" y1="44" y2="44"/><line style="stroke:#181818;stroke-width:0.5;" x1="7" x2="379.9609" y1="52" y2="52"/><a href="./../../.././qc/crypto/cast/c_skey.c.html#618" target="_top" title="./../../.././qc/crypto/cast/c_skey.c.html#618" xlink:actuate="onRequest" xlink:href="./../../.././qc/crypto/cast/c_skey.c.html#618" xlink:show="new" xlink:title="./../../.././qc/crypto/cast/c_skey.c.html#618" xlink:type="simple"><text fill="#000000" font-family="sans-serif" font-size="14" lengthAdjust="spacing" textLength="362.9609" x="12" y="68.9951">CAST_set_key(CAST_KEY*;int;unsignedchar*) :  void</text></a></g><?plantuml-src FSon2i8m483XlKznug8T4bn4x2JYvAYBX5AEIsY3ILfpLo68xwuu2F_oBVzYojX7X81bd0KuEi645GLa1Zl7ME1L7G-NQyTEkhihgn_EfrlT-2JDdDZtoLaQCDThs0CyHsy1Z35Agt_wGPfocMJKX2oQElw-5Ab1ObXkDxksRQitV000?></g></svg>