<?xml version="1.0" encoding="UTF-8" standalone="no"?><svg xmlns="http://www.w3.org/2000/svg" xmlns:xlink="http://www.w3.org/1999/xlink" contentStyleType="text/css" height="77px" preserveAspectRatio="none" style="width:320px;height:77px;background:#FFFFFF;" version="1.1" viewBox="0 0 320 77" width="320px" zoomAndPan="magnify"><defs/><g><!--MD5=[28a33587cab88bd185cb6d3cb19015ac]
class dummy--><g id="elem_dummy"><rect codeLine="2" fill="#F1F1F1" height="64.2969" id="dummy" rx="2.5" ry="2.5" style="stroke:#181818;stroke-width:0.5;" width="306" x="7" y="6.2969"/><ellipse cx="130.25" cy="22.2969" fill="#ADD1B2" rx="11" ry="11" style="stroke:#181818;stroke-width:1.0;"/><path d="M133.2188,27.9375 Q132.6406,28.2344 132,28.375 Q131.3594,28.5313 130.6563,28.5313 Q128.1563,28.5313 126.8281,26.8906 Q125.5156,25.2344 125.5156,22.1094 Q125.5156,18.9844 126.8281,17.3281 Q128.1563,15.6719 130.6563,15.6719 Q131.3594,15.6719 132,15.8281 Q132.6563,15.9844 133.2188,16.2813 L133.2188,19 Q132.5938,18.4219 132,18.1563 Q131.4063,17.875 130.7813,17.875 Q129.4375,17.875 128.75,18.9531 Q128.0625,20.0156 128.0625,22.1094 Q128.0625,24.2031 128.75,25.2813 Q129.4375,26.3438 130.7813,26.3438 Q131.4063,26.3438 132,26.0781 Q132.5938,25.7969 133.2188,25.2188 L133.2188,27.9375 Z " fill="#000000"/><text fill="#000000" font-family="sans-serif" font-size="14" lengthAdjust="spacing" textLength="51" x="150.75" y="27.1436">dummy</text><line style="stroke:#181818;stroke-width:0.5;" x1="8" x2="312" y1="38.2969" y2="38.2969"/><line style="stroke:#181818;stroke-width:0.5;" x1="8" x2="312" y1="46.2969" y2="46.2969"/><a href="./../../.././qc/crypto/cast/c_skey.c.html#618" target="_top" title="./../../.././qc/crypto/cast/c_skey.c.html#618" xlink:actuate="onRequest" xlink:href="./../../.././qc/crypto/cast/c_skey.c.html#618" xlink:show="new" xlink:title="./../../.././qc/crypto/cast/c_skey.c.html#618" xlink:type="simple"><text fill="#000000" font-family="sans-serif" font-size="14" lengthAdjust="spacing" textLength="294" x="13" y="63.292">CAST_set_key(CAST_KEY*;int;char*) :  void</text></a></g><!--MD5=[77d6915a3f0f992d7141252ec944c533]
@startuml
!pragma layout smetana
class dummy {
CAST_set_key(CAST_KEY*;int;char*) :  void  [[[./../../.././qc/crypto/cast/c_skey.c.html#618]]]
} 
@enduml

PlantUML version 1.2022.7(Mon Aug 22 17:01:30 UTC 2022)
(GPL source distribution)
Java Runtime: OpenJDK Runtime Environment
JVM: OpenJDK 64-Bit Server VM
Default Encoding: UTF-8
Language: en
Country: null
--></g></svg>