<?xml version="1.0" encoding="UTF-8" standalone="no"?><svg xmlns="http://www.w3.org/2000/svg" xmlns:xlink="http://www.w3.org/1999/xlink" contentStyleType="text/css" height="77px" preserveAspectRatio="none" style="width:385px;height:77px;background:#FFFFFF;" version="1.1" viewBox="0 0 385 77" width="385px" zoomAndPan="magnify"><defs/><g><!--MD5=[28a33587cab88bd185cb6d3cb19015ac]
class dummy--><g id="elem_dummy"><rect codeLine="2" fill="#F1F1F1" height="64.2969" id="dummy" rx="2.5" ry="2.5" style="stroke:#181818;stroke-width:0.5;" width="371" x="7" y="6.2969"/><ellipse cx="162.75" cy="22.2969" fill="#ADD1B2" rx="11" ry="11" style="stroke:#181818;stroke-width:1.0;"/><path d="M165.7188,27.9375 Q165.1406,28.2344 164.5,28.375 Q163.8594,28.5313 163.1563,28.5313 Q160.6563,28.5313 159.3281,26.8906 Q158.0156,25.2344 158.0156,22.1094 Q158.0156,18.9844 159.3281,17.3281 Q160.6563,15.6719 163.1563,15.6719 Q163.8594,15.6719 164.5,15.8281 Q165.1563,15.9844 165.7188,16.2813 L165.7188,19 Q165.0938,18.4219 164.5,18.1563 Q163.9063,17.875 163.2813,17.875 Q161.9375,17.875 161.25,18.9531 Q160.5625,20.0156 160.5625,22.1094 Q160.5625,24.2031 161.25,25.2813 Q161.9375,26.3438 163.2813,26.3438 Q163.9063,26.3438 164.5,26.0781 Q165.0938,25.7969 165.7188,25.2188 L165.7188,27.9375 Z " fill="#000000"/><text fill="#000000" font-family="sans-serif" font-size="14" lengthAdjust="spacing" textLength="51" x="183.25" y="27.1436">dummy</text><line style="stroke:#181818;stroke-width:0.5;" x1="8" x2="377" y1="38.2969" y2="38.2969"/><line style="stroke:#181818;stroke-width:0.5;" x1="8" x2="377" y1="46.2969" y2="46.2969"/><a href="./../../.././qc/crypto/cast/c_skey.c.html#618" target="_top" title="./../../.././qc/crypto/cast/c_skey.c.html#618" xlink:actuate="onRequest" xlink:href="./../../.././qc/crypto/cast/c_skey.c.html#618" xlink:show="new" xlink:title="./../../.././qc/crypto/cast/c_skey.c.html#618" xlink:type="simple"><text fill="#000000" font-family="sans-serif" font-size="14" lengthAdjust="spacing" textLength="359" x="13" y="63.292">CAST_set_key(CAST_KEY*;int;unsignedchar*) :  void</text></a></g><!--MD5=[1ccc79f72483c7c37f7ffb6c16287afc]
@startuml
!pragma layout smetana
class dummy {
CAST_set_key(CAST_KEY*;int;unsignedchar*) :  void  [[[./../../.././qc/crypto/cast/c_skey.c.html#618]]]
} 
@enduml

PlantUML version 1.2022.7(Mon Aug 22 17:01:30 UTC 2022)
(GPL source distribution)
Java Runtime: OpenJDK Runtime Environment
JVM: OpenJDK 64-Bit Server VM
Default Encoding: UTF-8
Language: en
Country: null
--></g></svg>