<?xml version="1.0" encoding="UTF-8" standalone="no"?><svg xmlns="http://www.w3.org/2000/svg" xmlns:xlink="http://www.w3.org/1999/xlink" contentStyleType="text/css" height="93px" preserveAspectRatio="none" style="width:542px;height:93px;background:#FFFFFF;" version="1.1" viewBox="0 0 542 93" width="542px" zoomAndPan="magnify"><defs/><g><!--MD5=[28a33587cab88bd185cb6d3cb19015ac]
class dummy--><g id="elem_dummy"><rect codeLine="2" fill="#F1F1F1" height="80.5938" id="dummy" rx="2.5" ry="2.5" style="stroke:#181818;stroke-width:0.5;" width="528" x="7" y="5.5938"/><ellipse cx="241.25" cy="21.5938" fill="#ADD1B2" rx="11" ry="11" style="stroke:#181818;stroke-width:1.0;"/><path d="M244.2188,27.2344 Q243.6406,27.5313 243,27.6719 Q242.3594,27.8281 241.6563,27.8281 Q239.1563,27.8281 237.8281,26.1875 Q236.5156,24.5313 236.5156,21.4063 Q236.5156,18.2813 237.8281,16.625 Q239.1563,14.9688 241.6563,14.9688 Q242.3594,14.9688 243,15.125 Q243.6563,15.2813 244.2188,15.5781 L244.2188,18.2969 Q243.5938,17.7188 243,17.4531 Q242.4063,17.1719 241.7813,17.1719 Q240.4375,17.1719 239.75,18.25 Q239.0625,19.3125 239.0625,21.4063 Q239.0625,23.5 239.75,24.5781 Q240.4375,25.6406 241.7813,25.6406 Q242.4063,25.6406 243,25.375 Q243.5938,25.0938 244.2188,24.5156 L244.2188,27.2344 Z " fill="#000000"/><text fill="#000000" font-family="sans-serif" font-size="14" lengthAdjust="spacing" textLength="51" x="261.75" y="26.4404">dummy</text><line style="stroke:#181818;stroke-width:0.5;" x1="8" x2="534" y1="37.5938" y2="37.5938"/><line style="stroke:#181818;stroke-width:0.5;" x1="8" x2="534" y1="45.5938" y2="45.5938"/><a href="./../../.././qc/crypto/idea/i_cbc.c.html#76" target="_top" title="./../../.././qc/crypto/idea/i_cbc.c.html#76" xlink:actuate="onRequest" xlink:href="./../../.././qc/crypto/idea/i_cbc.c.html#76" xlink:show="new" xlink:title="./../../.././qc/crypto/idea/i_cbc.c.html#76" xlink:type="simple"><text fill="#000000" font-family="sans-serif" font-size="14" lengthAdjust="spacing" textLength="516" x="13" y="62.5889">IDEA_cbc_encrypt(char*;char*;long;IDEA_KEY_SCHEDULE*;char*;int) :  void</text></a><a href="./../../.././qc/crypto/idea/i_cbc.c.html#152" target="_top" title="./../../.././qc/crypto/idea/i_cbc.c.html#152" xlink:actuate="onRequest" xlink:href="./../../.././qc/crypto/idea/i_cbc.c.html#152" xlink:show="new" xlink:title="./../../.././qc/crypto/idea/i_cbc.c.html#152" xlink:type="simple"><text fill="#000000" font-family="sans-serif" font-size="14" lengthAdjust="spacing" textLength="343" x="13" y="78.8857">IDEA_encrypt(long*;IDEA_KEY_SCHEDULE*) :  void</text></a></g><!--MD5=[36b4956d8687aa4f2b23b2ebcde80121]
@startuml
!pragma layout smetana
class dummy {
IDEA_cbc_encrypt(char*;char*;long;IDEA_KEY_SCHEDULE*;char*;int) :  void  [[[./../../.././qc/crypto/idea/i_cbc.c.html#76]]]
IDEA_encrypt(long*;IDEA_KEY_SCHEDULE*) :  void  [[[./../../.././qc/crypto/idea/i_cbc.c.html#152]]]
} 
@enduml

PlantUML version 1.2022.7(Mon Aug 22 17:01:30 UTC 2022)
(GPL source distribution)
Java Runtime: OpenJDK Runtime Environment
JVM: OpenJDK 64-Bit Server VM
Default Encoding: UTF-8
Language: en
Country: null
--></g></svg>