<?xml version="1.0" encoding="UTF-8" standalone="no"?><svg xmlns="http://www.w3.org/2000/svg" xmlns:xlink="http://www.w3.org/1999/xlink" contentStyleType="text/css" height="93px" preserveAspectRatio="none" style="width:737px;height:93px;background:#FFFFFF;" version="1.1" viewBox="0 0 737 93" width="737px" zoomAndPan="magnify"><defs/><g><!--MD5=[28a33587cab88bd185cb6d3cb19015ac]
class dummy--><g id="elem_dummy"><rect codeLine="2" fill="#F1F1F1" height="80.5938" id="dummy" rx="2.5" ry="2.5" style="stroke:#181818;stroke-width:0.5;" width="723" x="7" y="5.5938"/><ellipse cx="338.75" cy="21.5938" fill="#ADD1B2" rx="11" ry="11" style="stroke:#181818;stroke-width:1.0;"/><path d="M341.7188,27.2344 Q341.1406,27.5313 340.5,27.6719 Q339.8594,27.8281 339.1563,27.8281 Q336.6563,27.8281 335.3281,26.1875 Q334.0156,24.5313 334.0156,21.4063 Q334.0156,18.2813 335.3281,16.625 Q336.6563,14.9688 339.1563,14.9688 Q339.8594,14.9688 340.5,15.125 Q341.1563,15.2813 341.7188,15.5781 L341.7188,18.2969 Q341.0938,17.7188 340.5,17.4531 Q339.9063,17.1719 339.2813,17.1719 Q337.9375,17.1719 337.25,18.25 Q336.5625,19.3125 336.5625,21.4063 Q336.5625,23.5 337.25,24.5781 Q337.9375,25.6406 339.2813,25.6406 Q339.9063,25.6406 340.5,25.375 Q341.0938,25.0938 341.7188,24.5156 L341.7188,27.2344 Z " fill="#000000"/><text fill="#000000" font-family="sans-serif" font-size="14" lengthAdjust="spacing" textLength="51" x="359.25" y="26.4404">dummy</text><line style="stroke:#181818;stroke-width:0.5;" x1="8" x2="729" y1="37.5938" y2="37.5938"/><line style="stroke:#181818;stroke-width:0.5;" x1="8" x2="729" y1="45.5938" y2="45.5938"/><a href="./../../.././qc/crypto/idea/i_cbc.c.html#76" target="_top" title="./../../.././qc/crypto/idea/i_cbc.c.html#76" xlink:actuate="onRequest" xlink:href="./../../.././qc/crypto/idea/i_cbc.c.html#76" xlink:show="new" xlink:title="./../../.././qc/crypto/idea/i_cbc.c.html#76" xlink:type="simple"><text fill="#000000" font-family="sans-serif" font-size="14" lengthAdjust="spacing" textLength="711" x="13" y="62.5889">IDEA_cbc_encrypt(unsignedchar*;unsignedchar*;long;IDEA_KEY_SCHEDULE*;unsignedchar*;int) :  void</text></a><a href="./../../.././qc/crypto/idea/i_cbc.c.html#152" target="_top" title="./../../.././qc/crypto/idea/i_cbc.c.html#152" xlink:actuate="onRequest" xlink:href="./../../.././qc/crypto/idea/i_cbc.c.html#152" xlink:show="new" xlink:title="./../../.././qc/crypto/idea/i_cbc.c.html#152" xlink:type="simple"><text fill="#000000" font-family="sans-serif" font-size="14" lengthAdjust="spacing" textLength="408" x="13" y="78.8857">IDEA_encrypt(unsignedlong*;IDEA_KEY_SCHEDULE*) :  void</text></a></g><!--MD5=[b7f9b9f6f9ad8c4c3e28fb9f0fff4314]
@startuml
!pragma layout smetana
class dummy {
IDEA_cbc_encrypt(unsignedchar*;unsignedchar*;long;IDEA_KEY_SCHEDULE*;unsignedchar*;int) :  void  [[[./../../.././qc/crypto/idea/i_cbc.c.html#76]]]
IDEA_encrypt(unsignedlong*;IDEA_KEY_SCHEDULE*) :  void  [[[./../../.././qc/crypto/idea/i_cbc.c.html#152]]]
} 
@enduml

PlantUML version 1.2022.7(Mon Aug 22 17:01:30 UTC 2022)
(GPL source distribution)
Java Runtime: OpenJDK Runtime Environment
JVM: OpenJDK 64-Bit Server VM
Default Encoding: UTF-8
Language: en
Country: null
--></g></svg>