<?xml version="1.0" encoding="UTF-8" standalone="no"?><svg xmlns="http://www.w3.org/2000/svg" xmlns:xlink="http://www.w3.org/1999/xlink" contentStyleType="text/css" height="93px" preserveAspectRatio="none" style="width:574px;height:93px;background:#FFFFFF;" version="1.1" viewBox="0 0 574 93" width="574px" zoomAndPan="magnify"><defs/><g><!--MD5=[28a33587cab88bd185cb6d3cb19015ac]
class dummy--><g id="elem_dummy"><rect codeLine="2" fill="#F1F1F1" height="80.5938" id="dummy" rx="2.5" ry="2.5" style="stroke:#181818;stroke-width:0.5;" width="560" x="7" y="5.5938"/><ellipse cx="257.25" cy="21.5938" fill="#ADD1B2" rx="11" ry="11" style="stroke:#181818;stroke-width:1.0;"/><path d="M260.2188,27.2344 Q259.6406,27.5313 259,27.6719 Q258.3594,27.8281 257.6563,27.8281 Q255.1563,27.8281 253.8281,26.1875 Q252.5156,24.5313 252.5156,21.4063 Q252.5156,18.2813 253.8281,16.625 Q255.1563,14.9688 257.6563,14.9688 Q258.3594,14.9688 259,15.125 Q259.6563,15.2813 260.2188,15.5781 L260.2188,18.2969 Q259.5938,17.7188 259,17.4531 Q258.4063,17.1719 257.7813,17.1719 Q256.4375,17.1719 255.75,18.25 Q255.0625,19.3125 255.0625,21.4063 Q255.0625,23.5 255.75,24.5781 Q256.4375,25.6406 257.7813,25.6406 Q258.4063,25.6406 259,25.375 Q259.5938,25.0938 260.2188,24.5156 L260.2188,27.2344 Z " fill="#000000"/><text fill="#000000" font-family="sans-serif" font-size="14" lengthAdjust="spacing" textLength="51" x="277.75" y="26.4404">dummy</text><line style="stroke:#181818;stroke-width:0.5;" x1="8" x2="566" y1="37.5938" y2="37.5938"/><line style="stroke:#181818;stroke-width:0.5;" x1="8" x2="566" y1="45.5938" y2="45.5938"/><a href="./../../.././qc/crypto/idea/i_ecb.c.html#77" target="_top" title="./../../.././qc/crypto/idea/i_ecb.c.html#77" xlink:actuate="onRequest" xlink:href="./../../.././qc/crypto/idea/i_ecb.c.html#77" xlink:show="new" xlink:title="./../../.././qc/crypto/idea/i_ecb.c.html#77" xlink:type="simple"><text fill="#000000" font-family="sans-serif" font-size="14" lengthAdjust="spacing" textLength="176" x="13" y="62.5889">IDEA_options(void) :  char</text></a><a href="./../../.././qc/crypto/idea/i_ecb.c.html#82" target="_top" title="./../../.././qc/crypto/idea/i_ecb.c.html#82" xlink:actuate="onRequest" xlink:href="./../../.././qc/crypto/idea/i_ecb.c.html#82" xlink:show="new" xlink:title="./../../.././qc/crypto/idea/i_ecb.c.html#82" xlink:type="simple"><text fill="#000000" font-family="sans-serif" font-size="14" lengthAdjust="spacing" textLength="548" x="13" y="78.8857">IDEA_ecb_encrypt(unsignedchar*;unsignedchar*;IDEA_KEY_SCHEDULE*) :  void</text></a></g><!--MD5=[bd27bc34846b71225b93c7152683dc83]
@startuml
!pragma layout smetana
class dummy {
IDEA_options(void) :  char  [[[./../../.././qc/crypto/idea/i_ecb.c.html#77]]]
IDEA_ecb_encrypt(unsignedchar*;unsignedchar*;IDEA_KEY_SCHEDULE*) :  void  [[[./../../.././qc/crypto/idea/i_ecb.c.html#82]]]
} 
@enduml

PlantUML version 1.2022.7(Mon Aug 22 17:01:30 UTC 2022)
(GPL source distribution)
Java Runtime: OpenJDK Runtime Environment
JVM: OpenJDK 64-Bit Server VM
Default Encoding: UTF-8
Language: en
Country: null
--></g></svg>