<svg xmlns="http://www.w3.org/2000/svg" xmlns:xlink="http://www.w3.org/1999/xlink" contentStyleType="text/css" data-diagram-type="CLASS" height="93px" preserveAspectRatio="none" style="width:589px;height:93px;background:#FFFFFF;" version="1.1" viewBox="0 0 589 93" width="589px" zoomAndPan="magnify"><?plantuml 1.2026.6?><defs/><g><!--class dummy--><g class="entity" data-qualified-name="dummy" data-source-line="2" id="ent0001"><rect fill="#F1F1F1" height="80.5938" rx="2.5" ry="2.5" style="stroke:#181818;stroke-width:0.5;" width="566.9893" x="6" y="12"/><ellipse cx="258.5845" cy="28" fill="#ADD1B2" rx="11" ry="11" style="stroke:#181818;stroke-width:1;"/><path d="M261.5532,33.6406 Q260.9751,33.9375 260.3345,34.0781 Q259.6938,34.2344 258.9907,34.2344 Q256.4907,34.2344 255.1626,32.5938 Q253.8501,30.9375 253.8501,27.8125 Q253.8501,24.6875 255.1626,23.0313 Q256.4907,21.375 258.9907,21.375 Q259.6938,21.375 260.3345,21.5313 Q260.9907,21.6875 261.5532,21.9844 L261.5532,24.7031 Q260.9282,24.125 260.3345,23.8594 Q259.7407,23.5781 259.1157,23.5781 Q257.772,23.5781 257.0845,24.6563 Q256.397,25.7188 256.397,27.8125 Q256.397,29.9063 257.0845,30.9844 Q257.772,32.0469 259.1157,32.0469 Q259.7407,32.0469 260.3345,31.7813 Q260.9282,31.5 261.5532,30.9219 L261.5532,33.6406 Z " fill="#000000"/><text fill="#000000" font-family="sans-serif" font-size="14" lengthAdjust="spacing" textLength="53.3203" x="279.0845" y="32.8467">dummy</text><line style="stroke:#181818;stroke-width:0.5;" x1="7" x2="571.9893" y1="44" y2="44"/><line style="stroke:#181818;stroke-width:0.5;" x1="7" x2="571.9893" y1="52" y2="52"/><a href="./../../.././qc/crypto/idea/i_ecb.c.html#77" target="_top" title="./../../.././qc/crypto/idea/i_ecb.c.html#77" xlink:actuate="onRequest" xlink:href="./../../.././qc/crypto/idea/i_ecb.c.html#77" xlink:show="new" xlink:title="./../../.././qc/crypto/idea/i_ecb.c.html#77" xlink:type="simple"><text fill="#000000" font-family="sans-serif" font-size="14" lengthAdjust="spacing" textLength="181.4189" x="12" y="68.9951">IDEA_options(void) :  char</text></a><a href="./../../.././qc/crypto/idea/i_ecb.c.html#82" target="_top" title="./../../.././qc/crypto/idea/i_ecb.c.html#82" xlink:actuate="onRequest" xlink:href="./../../.././qc/crypto/idea/i_ecb.c.html#82" xlink:show="new" xlink:title="./../../.././qc/crypto/idea/i_ecb.c.html#82" xlink:type="simple"><text fill="#000000" font-family="sans-serif" font-size="14" lengthAdjust="spacing" textLength="554.9893" x="12" y="85.292">IDEA_ecb_encrypt(unsignedchar*;unsignedchar*;IDEA_KEY_SCHEDULE*) :  void</text></a></g><?plantuml-src KomeIapFJLJ8IQpCBorHACvDBKdCI-HApaaiBbP8AStDhLIevl9qSNMCpoyeoSpFAzOeoyzCqLImKb18paWiKb28ZexMqzU38_t2PFtaeig2adpzp9JKHFtC-DJa9BralOoIt1nbS_FOs5Y8QK3H-DGyi4gDqhpYpFIyr1IGWLhMg3omOc_NoFXWPmzNbr0VLosmtI17a6QtXH78xbe50000?></g></svg>