<?xml version="1.0" encoding="UTF-8" standalone="no"?><svg xmlns="http://www.w3.org/2000/svg" xmlns:xlink="http://www.w3.org/1999/xlink" contentStyleType="text/css" height="93px" preserveAspectRatio="none" style="width:444px;height:93px;background:#FFFFFF;" version="1.1" viewBox="0 0 444 93" width="444px" zoomAndPan="magnify"><defs/><g><!--MD5=[28a33587cab88bd185cb6d3cb19015ac]
class dummy--><g id="elem_dummy"><rect codeLine="2" fill="#F1F1F1" height="80.5938" id="dummy" rx="2.5" ry="2.5" style="stroke:#181818;stroke-width:0.5;" width="430" x="7" y="5.5938"/><ellipse cx="192.25" cy="21.5938" fill="#ADD1B2" rx="11" ry="11" style="stroke:#181818;stroke-width:1.0;"/><path d="M195.2188,27.2344 Q194.6406,27.5313 194,27.6719 Q193.3594,27.8281 192.6563,27.8281 Q190.1563,27.8281 188.8281,26.1875 Q187.5156,24.5313 187.5156,21.4063 Q187.5156,18.2813 188.8281,16.625 Q190.1563,14.9688 192.6563,14.9688 Q193.3594,14.9688 194,15.125 Q194.6563,15.2813 195.2188,15.5781 L195.2188,18.2969 Q194.5938,17.7188 194,17.4531 Q193.4063,17.1719 192.7813,17.1719 Q191.4375,17.1719 190.75,18.25 Q190.0625,19.3125 190.0625,21.4063 Q190.0625,23.5 190.75,24.5781 Q191.4375,25.6406 192.7813,25.6406 Q193.4063,25.6406 194,25.375 Q194.5938,25.0938 195.2188,24.5156 L195.2188,27.2344 Z " fill="#000000"/><text fill="#000000" font-family="sans-serif" font-size="14" lengthAdjust="spacing" textLength="51" x="212.75" y="26.4404">dummy</text><line style="stroke:#181818;stroke-width:0.5;" x1="8" x2="436" y1="37.5938" y2="37.5938"/><line style="stroke:#181818;stroke-width:0.5;" x1="8" x2="436" y1="45.5938" y2="45.5938"/><a href="./../../.././qc/crypto/idea/i_ecb.c.html#77" target="_top" title="./../../.././qc/crypto/idea/i_ecb.c.html#77" xlink:actuate="onRequest" xlink:href="./../../.././qc/crypto/idea/i_ecb.c.html#77" xlink:show="new" xlink:title="./../../.././qc/crypto/idea/i_ecb.c.html#77" xlink:type="simple"><text fill="#000000" font-family="sans-serif" font-size="14" lengthAdjust="spacing" textLength="176" x="13" y="62.5889">IDEA_options(void) :  char</text></a><a href="./../../.././qc/crypto/idea/i_ecb.c.html#82" target="_top" title="./../../.././qc/crypto/idea/i_ecb.c.html#82" xlink:actuate="onRequest" xlink:href="./../../.././qc/crypto/idea/i_ecb.c.html#82" xlink:show="new" xlink:title="./../../.././qc/crypto/idea/i_ecb.c.html#82" xlink:type="simple"><text fill="#000000" font-family="sans-serif" font-size="14" lengthAdjust="spacing" textLength="418" x="13" y="78.8857">IDEA_ecb_encrypt(char*;char*;IDEA_KEY_SCHEDULE*) :  void</text></a></g><!--MD5=[933f7d3b27d4d62f73e8bad291682c1a]
@startuml
!pragma layout smetana
class dummy {
IDEA_options(void) :  char  [[[./../../.././qc/crypto/idea/i_ecb.c.html#77]]]
IDEA_ecb_encrypt(char*;char*;IDEA_KEY_SCHEDULE*) :  void  [[[./../../.././qc/crypto/idea/i_ecb.c.html#82]]]
} 
@enduml

PlantUML version 1.2022.7(Mon Aug 22 17:01:30 UTC 2022)
(GPL source distribution)
Java Runtime: OpenJDK Runtime Environment
JVM: OpenJDK 64-Bit Server VM
Default Encoding: UTF-8
Language: en
Country: null
--></g></svg>