<?xml version="1.0" encoding="UTF-8" standalone="no"?><svg xmlns="http://www.w3.org/2000/svg" xmlns:xlink="http://www.w3.org/1999/xlink" contentStyleType="text/css" height="77px" preserveAspectRatio="none" style="width:759px;height:77px;background:#FFFFFF;" version="1.1" viewBox="0 0 759 77" width="759px" zoomAndPan="magnify"><defs/><g><!--MD5=[28a33587cab88bd185cb6d3cb19015ac]
class dummy--><g id="elem_dummy"><rect codeLine="2" fill="#F1F1F1" height="64.2969" id="dummy" rx="2.5" ry="2.5" style="stroke:#181818;stroke-width:0.5;" width="745" x="7" y="6.2969"/><ellipse cx="349.75" cy="22.2969" fill="#ADD1B2" rx="11" ry="11" style="stroke:#181818;stroke-width:1.0;"/><path d="M352.7188,27.9375 Q352.1406,28.2344 351.5,28.375 Q350.8594,28.5313 350.1563,28.5313 Q347.6563,28.5313 346.3281,26.8906 Q345.0156,25.2344 345.0156,22.1094 Q345.0156,18.9844 346.3281,17.3281 Q347.6563,15.6719 350.1563,15.6719 Q350.8594,15.6719 351.5,15.8281 Q352.1563,15.9844 352.7188,16.2813 L352.7188,19 Q352.0938,18.4219 351.5,18.1563 Q350.9063,17.875 350.2813,17.875 Q348.9375,17.875 348.25,18.9531 Q347.5625,20.0156 347.5625,22.1094 Q347.5625,24.2031 348.25,25.2813 Q348.9375,26.3438 350.2813,26.3438 Q350.9063,26.3438 351.5,26.0781 Q352.0938,25.7969 352.7188,25.2188 L352.7188,27.9375 Z " fill="#000000"/><text fill="#000000" font-family="sans-serif" font-size="14" lengthAdjust="spacing" textLength="51" x="370.25" y="27.1436">dummy</text><line style="stroke:#181818;stroke-width:0.5;" x1="8" x2="751" y1="38.2969" y2="38.2969"/><line style="stroke:#181818;stroke-width:0.5;" x1="8" x2="751" y1="46.2969" y2="46.2969"/><a href="./../../.././qc/crypto/idea/i_ofb64.c.html#81" target="_top" title="./../../.././qc/crypto/idea/i_ofb64.c.html#81" xlink:actuate="onRequest" xlink:href="./../../.././qc/crypto/idea/i_ofb64.c.html#81" xlink:show="new" xlink:title="./../../.././qc/crypto/idea/i_ofb64.c.html#81" xlink:type="simple"><text fill="#000000" font-family="sans-serif" font-size="14" lengthAdjust="spacing" textLength="733" x="13" y="63.292">IDEA_ofb64_encrypt(unsignedchar*;unsignedchar*;long;IDEA_KEY_SCHEDULE*;unsignedchar*;int*) :  void</text></a></g><!--MD5=[999e43420488d7579068efa08777868d]
@startuml
!pragma layout smetana
class dummy {
IDEA_ofb64_encrypt(unsignedchar*;unsignedchar*;long;IDEA_KEY_SCHEDULE*;unsignedchar*;int*) :  void  [[[./../../.././qc/crypto/idea/i_ofb64.c.html#81]]]
} 
@enduml

PlantUML version 1.2022.7(Mon Aug 22 17:01:30 UTC 2022)
(GPL source distribution)
Java Runtime: OpenJDK Runtime Environment
JVM: OpenJDK 64-Bit Server VM
Default Encoding: UTF-8
Language: en
Country: null
--></g></svg>