<?xml version="1.0" encoding="UTF-8" standalone="no"?><svg xmlns="http://www.w3.org/2000/svg" xmlns:xlink="http://www.w3.org/1999/xlink" contentStyleType="text/css" height="77px" preserveAspectRatio="none" style="width:564px;height:77px;background:#FFFFFF;" version="1.1" viewBox="0 0 564 77" width="564px" zoomAndPan="magnify"><defs/><g><!--MD5=[28a33587cab88bd185cb6d3cb19015ac]
class dummy--><g id="elem_dummy"><rect codeLine="2" fill="#F1F1F1" height="64.2969" id="dummy" rx="2.5" ry="2.5" style="stroke:#181818;stroke-width:0.5;" width="550" x="7" y="6.2969"/><ellipse cx="252.25" cy="22.2969" fill="#ADD1B2" rx="11" ry="11" style="stroke:#181818;stroke-width:1.0;"/><path d="M255.2188,27.9375 Q254.6406,28.2344 254,28.375 Q253.3594,28.5313 252.6563,28.5313 Q250.1563,28.5313 248.8281,26.8906 Q247.5156,25.2344 247.5156,22.1094 Q247.5156,18.9844 248.8281,17.3281 Q250.1563,15.6719 252.6563,15.6719 Q253.3594,15.6719 254,15.8281 Q254.6563,15.9844 255.2188,16.2813 L255.2188,19 Q254.5938,18.4219 254,18.1563 Q253.4063,17.875 252.7813,17.875 Q251.4375,17.875 250.75,18.9531 Q250.0625,20.0156 250.0625,22.1094 Q250.0625,24.2031 250.75,25.2813 Q251.4375,26.3438 252.7813,26.3438 Q253.4063,26.3438 254,26.0781 Q254.5938,25.7969 255.2188,25.2188 L255.2188,27.9375 Z " fill="#000000"/><text fill="#000000" font-family="sans-serif" font-size="14" lengthAdjust="spacing" textLength="51" x="272.75" y="27.1436">dummy</text><line style="stroke:#181818;stroke-width:0.5;" x1="8" x2="556" y1="38.2969" y2="38.2969"/><line style="stroke:#181818;stroke-width:0.5;" x1="8" x2="556" y1="46.2969" y2="46.2969"/><a href="./../../.././qc/crypto/idea/i_ofb64.c.html#81" target="_top" title="./../../.././qc/crypto/idea/i_ofb64.c.html#81" xlink:actuate="onRequest" xlink:href="./../../.././qc/crypto/idea/i_ofb64.c.html#81" xlink:show="new" xlink:title="./../../.././qc/crypto/idea/i_ofb64.c.html#81" xlink:type="simple"><text fill="#000000" font-family="sans-serif" font-size="14" lengthAdjust="spacing" textLength="538" x="13" y="63.292">IDEA_ofb64_encrypt(char*;char*;long;IDEA_KEY_SCHEDULE*;char*;int*) :  void</text></a></g><!--MD5=[c4e9b7f7bbce391866302c0b8e12dbcb]
@startuml
!pragma layout smetana
class dummy {
IDEA_ofb64_encrypt(char*;char*;long;IDEA_KEY_SCHEDULE*;char*;int*) :  void  [[[./../../.././qc/crypto/idea/i_ofb64.c.html#81]]]
} 
@enduml

PlantUML version 1.2022.7(Mon Aug 22 17:01:30 UTC 2022)
(GPL source distribution)
Java Runtime: OpenJDK Runtime Environment
JVM: OpenJDK 64-Bit Server VM
Default Encoding: UTF-8
Language: en
Country: null
--></g></svg>