<?xml version="1.0" encoding="UTF-8" standalone="no"?><svg xmlns="http://www.w3.org/2000/svg" xmlns:xlink="http://www.w3.org/1999/xlink" contentStyleType="text/css" height="109px" preserveAspectRatio="none" style="width:547px;height:109px;background:#FFFFFF;" version="1.1" viewBox="0 0 547 109" width="547px" zoomAndPan="magnify"><defs/><g><!--MD5=[28a33587cab88bd185cb6d3cb19015ac]
class dummy--><g id="elem_dummy"><rect codeLine="2" fill="#F1F1F1" height="96.8906" id="dummy" rx="2.5" ry="2.5" style="stroke:#181818;stroke-width:0.5;" width="533" x="7" y="5.8906"/><ellipse cx="243.75" cy="21.8906" fill="#ADD1B2" rx="11" ry="11" style="stroke:#181818;stroke-width:1.0;"/><path d="M246.7188,27.5313 Q246.1406,27.8281 245.5,27.9688 Q244.8594,28.125 244.1563,28.125 Q241.6563,28.125 240.3281,26.4844 Q239.0156,24.8281 239.0156,21.7031 Q239.0156,18.5781 240.3281,16.9219 Q241.6563,15.2656 244.1563,15.2656 Q244.8594,15.2656 245.5,15.4219 Q246.1563,15.5781 246.7188,15.875 L246.7188,18.5938 Q246.0938,18.0156 245.5,17.75 Q244.9063,17.4688 244.2813,17.4688 Q242.9375,17.4688 242.25,18.5469 Q241.5625,19.6094 241.5625,21.7031 Q241.5625,23.7969 242.25,24.875 Q242.9375,25.9375 244.2813,25.9375 Q244.9063,25.9375 245.5,25.6719 Q246.0938,25.3906 246.7188,24.8125 L246.7188,27.5313 Z " fill="#000000"/><text fill="#000000" font-family="sans-serif" font-size="14" lengthAdjust="spacing" textLength="51" x="264.25" y="26.7373">dummy</text><line style="stroke:#181818;stroke-width:0.5;" x1="8" x2="539" y1="37.8906" y2="37.8906"/><line style="stroke:#181818;stroke-width:0.5;" x1="8" x2="539" y1="45.8906" y2="45.8906"/><a href="./../../.././qc/crypto/idea/i_skey.c.html#77" target="_top" title="./../../.././qc/crypto/idea/i_skey.c.html#77" xlink:actuate="onRequest" xlink:href="./../../.././qc/crypto/idea/i_skey.c.html#77" xlink:show="new" xlink:title="./../../.././qc/crypto/idea/i_skey.c.html#77" xlink:type="simple"><text fill="#000000" font-family="sans-serif" font-size="14" lengthAdjust="spacing" textLength="468" x="13" y="62.8857">IDEA_set_encrypt_key(unsignedchar*;IDEA_KEY_SCHEDULE*) :  void</text></a><a href="./../../.././qc/crypto/idea/i_skey.c.html#117" target="_top" title="./../../.././qc/crypto/idea/i_skey.c.html#117" xlink:actuate="onRequest" xlink:href="./../../.././qc/crypto/idea/i_skey.c.html#117" xlink:show="new" xlink:title="./../../.././qc/crypto/idea/i_skey.c.html#117" xlink:type="simple"><text fill="#000000" font-family="sans-serif" font-size="14" lengthAdjust="spacing" textLength="521" x="13" y="79.1826">IDEA_set_decrypt_key(IDEA_KEY_SCHEDULE*;IDEA_KEY_SCHEDULE*) :  void</text></a><a href="./../../.././qc/crypto/idea/i_skey.c.html#147" target="_top" title="./../../.././qc/crypto/idea/i_skey.c.html#147" xlink:actuate="onRequest" xlink:href="./../../.././qc/crypto/idea/i_skey.c.html#147" xlink:show="new" xlink:title="./../../.././qc/crypto/idea/i_skey.c.html#147" xlink:type="simple"><text fill="#000000" font-family="sans-serif" font-size="14" lengthAdjust="spacing" textLength="216" x="13" y="95.4795">inverse(unsignedint) : IDEA_INT</text></a></g><!--MD5=[0b3504d8b5dcb00f3d16afdaa4bc1220]
@startuml
!pragma layout smetana
class dummy {
IDEA_set_encrypt_key(unsignedchar*;IDEA_KEY_SCHEDULE*) :  void  [[[./../../.././qc/crypto/idea/i_skey.c.html#77]]]
IDEA_set_decrypt_key(IDEA_KEY_SCHEDULE*;IDEA_KEY_SCHEDULE*) :  void  [[[./../../.././qc/crypto/idea/i_skey.c.html#117]]]
inverse(unsignedint) : IDEA_INT [[[./../../.././qc/crypto/idea/i_skey.c.html#147]]]
} 
@enduml

PlantUML version 1.2022.7(Mon Aug 22 17:01:30 UTC 2022)
(GPL source distribution)
Java Runtime: OpenJDK Runtime Environment
JVM: OpenJDK 64-Bit Server VM
Default Encoding: UTF-8
Language: en
Country: null
--></g></svg>